<?xml version="1.0" standalone="no"?>
<!DOCTYPE svg PUBLIC "-//W3C//DTD SVG 20010904//EN"
 "http://www.w3.org/TR/2001/REC-SVG-20010904/DTD/svg10.dtd">
<svg version="1.0" xmlns="http://www.w3.org/2000/svg"
 width="360.000000pt" height="360.000000pt" viewBox="0 0 360.000000 360.000000"
 preserveAspectRatio="xMidYMid meet">
<metadata>
Created by potrace 1.11, written by Peter Selinger 2001-2013
</metadata>
<g transform="translate(0.000000,360.000000) scale(0.100000,-0.100000)"
fill="#000000" stroke="none">
<path d="M1580 3097 c-3 -3 -34 -8 -70 -11 -123 -12 -223 -35 -334 -78 -175
-68 -296 -146 -421 -272 -174 -176 -274 -369 -331 -636 -19 -92 -25 -330 -11
-430 53 -378 255 -704 547 -884 49 -31 92 -56 94 -56 3 0 33 -13 68 -29 156
-73 355 -113 568 -115 248 -2 362 16 547 85 l72 27 28 -25 c156 -138 411 -234
621 -234 34 0 70 2 80 5 9 3 33 7 52 10 45 7 134 37 187 64 40 21 168 115 227
167 l30 25 -21 28 c-26 35 -76 52 -122 40 -227 -55 -393 -35 -616 72 -132 64
-129 57 -64 131 147 170 256 403 300 644 20 105 15 420 -6 455 -2 3 -6 21 -9
40 -23 147 -115 357 -219 500 -148 204 -398 369 -657 433 -60 15 -87 20 -165
33 -40 7 -370 16 -375 11z m296 -224 c392 -74 599 -443 588 -1050 -3 -125 -6
-168 -19 -287 -8 -69 -54 -240 -84 -309 l-21 -49 -29 24 c-15 13 -59 50 -98
84 -148 129 -266 199 -432 254 -93 31 -203 41 -306 27 -61 -8 -188 -48 -243
-76 -53 -27 -86 -80 -78 -125 17 -91 115 -108 251 -43 156 75 262 82 378 27
85 -40 158 -108 220 -203 55 -84 127 -212 127 -225 0 -4 -20 -19 -44 -34 -213
-128 -561 -123 -763 12 -71 48 -167 152 -208 225 -105 187 -148 398 -149 720
0 429 88 711 276 880 91 82 210 137 327 151 25 3 47 7 48 8 10 9 192 2 259
-11z"/>
</g>
</svg>
