<?xml version="1.0" encoding="UTF-8"?>
<svg id="Camada_1" data-name="Camada 1" xmlns="http://www.w3.org/2000/svg" version="1.1" viewBox="0 0 360 360">
  <defs>
    <style>
      .cls-1 {
        fill: #c5d82f;
        stroke: #231f20;
        stroke-miterlimit: 10;
        stroke-width: 2.6px;
      }
    </style>
  </defs>
  <path class="cls-1" d="M179.9,305.8c-68,1.4-125.8-55.8-125.9-124.4-.1-72.3,55.9-127.1,125.7-127.4,73.6-.3,126,60.2,126.3,125.6.3,69.2-57.8,127.7-126.2,126.1ZM180.8,73.4c-66.6-.1-116.7,58.3-105.9,124.3,8.2,50.2,46.9,81.3,89.5,88.1,7.1,1.1,14.3,1.8,21.5,1.3,6.5-.5,12.8-2.2,19.1-3.4,14.9-2.7,28.3-9.5,40.4-18.9,11.8-9.1,20.7-20.6,28-33.2,10.9-19,14.8-39.7,12.7-61.7-5.1-54.3-51-96.4-105.4-96.5Z"/>
  <path class="cls-1" d="M166.1,172.9c-20.4-5.5-40.9-10.9-61.2-16.7-9.9-2.8-13.2-10.7-8.7-19.9,1.3-2.7,2.9-5.4,4.7-7.9,4.7-6.9,13.4-8.8,19.3-3.1,15.9,15.2,31.2,31.1,46.7,46.7-.3.3-.5.6-.8.8Z"/>
  <path class="cls-1" d="M171.8,166.5c-8.7-8.4-17.3-16.9-26-25.4-5.9-5.8-11.7-11.6-17.5-17.5-9.5-9.5-8.4-17.8,3.2-24.8,2.2-1.3,4.6-2.6,7-3.6,6.7-2.7,14.3-.4,16.3,6.3,6.4,21.4,13.1,42.8,16.9,64.9h0Z"/>
  <path class="cls-1" d="M180.6,196.3c2.2,8.1,3.8,16.4,6.8,24.2,4.7,12.5,5.7,25.8,9.9,38.4,1.4,4.3-.9,7.4-2.4,11-1.8,4.4-4.8,4.9-9,4.5-3.4-.4-7,0-10.5,0-8.6-.3-14.6-6.1-12.7-14.4,4.9-21.3,10.9-42.4,16.4-63.6.5,0,1,0,1.5,0Z"/>
  <path class="cls-1" d="M195.7,188.5c12.5,2.3,24.5,6.3,36.8,9.3,2.5.6,5,2.8,7.9,0,1.8-1.7,1.3,1.2,2,1.8,3.4,2.6,7.7,2.6,11.6,3.7,11.4,3.2,14.9,11.1,9.5,21.5-3.6,6.9-7.1,13.9-16.9,12.7-2.5-.3-4.9-.8-6.6-2.6-15-15.2-30.9-29.6-45-45.7.2-.3.5-.6.7-.9Z"/>
  <path class="cls-1" d="M179.4,164c-2.8-10-5.5-20.1-8.2-30.1-2.7-9.9-5.3-19.8-7.8-29.8-2.9-11.4,2.5-18.4,14.2-18.9,4.2-.2,8.3,0,12.2,1.6,6.1,2.5,9.3,8.5,7.7,14.9-5.5,20.7-11.1,41.3-16.7,61.9-.5,0-.9.2-1.4.3Z"/>
  <path class="cls-1" d="M194,171.7c15.2-15.3,30.1-30.9,45.6-45.9,6.3-6.1,14.6-4.5,19.7,2.7.9,1.2,1.7,2.5,2.4,3.9,8,14.3,5.1,21-10.6,25.1-16.6,4.4-33.2,8.9-49.9,13.3-2.3.6-4.7.7-7,1.1,0,0-.2-.2-.2-.2Z"/>
  <path class="cls-1" d="M164.1,180.8c-14.6,3.9-29.3,7.9-43.9,11.8-6.1,1.6-12.2,3.4-18.3,4.8-7.1,1.7-13.3-1.7-15.5-8.5-1.8-5.5-1.7-11.3-.4-16.8,1.5-6.1,8-10.8,13.9-9.4,21.5,5.3,42.9,11,64.3,16.6,0,.5,0,.9,0,1.4Z"/>
  <path class="cls-1" d="M171.9,194.2c-.8,9.2-4.2,17.7-6.5,26.6-3,11.8-6.1,23.6-9.4,35.4-2.3,8.4-10,12.4-17.8,8.7-5.7-2.6-12.4-4.2-15-11.4-1.9-5.1-1.4-9.8,2.2-13.4,15.3-15.5,30.9-30.7,46.4-46h.1Z"/>
  <path class="cls-1" d="M196.5,179.4c14.3-3.8,28.6-7.7,42.9-11.5,5.9-1.6,11.8-3.3,17.7-4.7,10.1-2.4,16.4,2.8,17.2,13,1.6,18.9-6.3,25-23.5,19.5-17.8-5.7-36.2-9.9-54.3-14.7,0-.5,0-1,0-1.5Z"/>
  <path class="cls-1" d="M165.5,189.1c-14.1,15.9-30,30-44.9,45.1-5.6,5.7-14.9,4.7-19.5-1.8-2.3-3.2-4.3-6.6-5.8-10.2-3-7-.1-15.3,7-17.3,20.7-5.9,41.4-12.2,62.6-16.4.2.2.4.4.6.7Z"/>
  <path class="cls-1" d="M218.3,94.3c6.3,1.7,13.3,4.6,17.7,11.3,3.1,4.8,2.6,10.4-1.4,14.6-13.7,14.1-27.7,27.9-41.5,41.7-.9.9-1.8,2.2-3.3,1.5-1.4-.7-1-2.3-.7-3.5,5.2-19.1,10.2-38.3,15.7-57.3,1.6-5.4,6.3-8.1,13.5-8.3Z"/>
  <path class="cls-1" d="M164.9,188.5l1.7-.5c-.4.4-.7.8-1.1,1.1-.2-.2-.4-.4-.6-.7Z"/>
  <path class="cls-1" d="M195,189.4c-.4-.4-.9-.7-1.3-1.1.8-.9,1.4-.3,2,.3-.2.3-.5.6-.7.8Z"/>
  <polygon class="cls-1" points="188.2 166.1 188.1 165.7 188.4 165.8 188.2 166.1"/>
  <path class="cls-1" d="M171.7,166.6c.2,0,.4,0,.5.1-.2,0-.3-.1-.5-.2,0,0,0,0,0,0Z"/>
  <path class="cls-1" d="M194.2,171.9l-.4.5-.3-.3c.2-.1.3-.3.5-.4,0,0,.2.2.2.2Z"/>
  <path class="cls-1" d="M171.7,194c.1-.2.2-.3.3-.5,0,.2-.1.4-.2.6,0,0-.1-.1-.1-.1Z"/>
  <path class="cls-1" d="M187.4,194.6c7.6,5.2,13.4,12.3,20,18.6,8.9,8.4,17.6,16.9,26.3,25.5,6.2,6.1,5.9,14.7-1.1,19.8-5.1,3.7-9.7,8.8-17.3,7.5-5.4-.9-9.2-3.5-10.6-8.4-6-20.9-11.7-42-17.5-62.9h.2Z"/>
</svg>