<svg width="33" height="33" viewBox="0 0 33 33" fill="none" xmlns="http://www.w3.org/2000/svg">
<mask id="mask0_591_739" style="mask-type:luminance" maskUnits="userSpaceOnUse" x="0" y="0" width="33" height="33">
<path d="M32.5975 0H0V32.2028H32.5975V0Z" fill="white"/>
</mask>
<g mask="url(#mask0_591_739)">
<path d="M29.3959 18.4646C27.6659 20.1995 25.4019 21.3001 22.9689 21.5883C22.9959 19.2312 22.3279 16.9184 21.0479 14.9385C21.6949 15.034 22.3559 14.9786 22.9779 14.7766C23.5999 14.5746 24.1679 14.2315 24.6349 13.7741C26.3259 12.1215 26.3029 9.36284 24.6319 7.6912L21.6658 4.7259L26.3899 0L29.3939 3.00469C32.5979 6.20811 33.3979 10.9048 31.7929 14.8544C31.2439 16.2062 30.4289 17.4339 29.3959 18.4646Z" fill="white"/>
<path d="M10.9317 27.4776L6.20766 32.2035L3.20366 29.1988C0.000658989 25.9954 -0.799343 21.2987 0.804657 17.3491C1.54166 15.5418 2.74866 13.9644 4.29966 12.7804C5.85166 11.5964 7.69165 10.8488 9.62965 10.6152C9.60265 12.9723 10.2707 15.2851 11.5497 17.265C10.9027 17.1695 10.2427 17.2249 9.61966 17.4269C8.99766 17.6289 8.43065 17.972 7.96265 18.4294C6.27165 20.082 6.29466 22.8407 7.96666 24.5123L10.9317 27.4776Z" fill="white"/>
<path d="M18.6614 29.1985L15.6574 32.2032L10.9314 27.4773L13.9364 24.4731C14.7324 23.6763 15.1804 22.5956 15.1804 21.4688C15.1804 20.342 14.7324 19.2613 13.9364 18.4645C11.8854 16.4144 10.7344 13.6339 10.7344 10.7346C10.7344 7.83534 11.8854 5.0548 13.9364 3.00469L16.9404 0L21.6664 4.7259L18.6614 7.73015C17.8654 8.52694 17.4174 9.6076 17.4174 10.7344C17.4174 11.8612 17.8654 12.9419 18.6614 13.7386C20.7124 15.7888 21.8634 18.5693 21.8634 21.4686C21.8634 24.3679 20.7124 27.1484 18.6614 29.1985Z" fill="white"/>
</g>
</svg>
