<svg xmlns="http://www.w3.org/2000/svg" fill="none" viewBox="0 0 33 33" height="33" width="33">
<path fill="url(#paint0_radial_7867_44825)" d="M5.31042 14.6445C5.14242 15.0742 4.99865 15.5103 4.87749 15.9563C4.3444 17.9157 4.25394 19.9713 4.61256 21.9698C4.62871 22.0691 4.6481 22.1683 4.6691 22.2676C4.74502 22.6452 4.83872 23.0244 4.94695 23.3938C5.06811 23.8056 5.21188 24.2206 5.37666 24.6242C6.47999 27.3551 8.44596 29.6466 10.9676 31.1439C11.5573 31.4954 12.1744 31.7998 12.8124 32.0537C17.7217 34.0099 23.3127 32.8788 27.0912 29.1649C28.2543 28.0224 29.1993 26.6716 29.8778 25.1841C29.7631 25.3061 29.6435 25.4282 29.5256 25.547C27.5677 27.4837 25.1026 28.815 22.4178 29.3862C22.2966 29.4464 22.1722 29.5018 22.0478 29.5571C18.1724 31.2513 13.6735 30.5157 10.5282 27.6741C10.3522 27.5162 10.1809 27.3502 10.0145 27.1794L9.94023 27.0996C8.42496 25.5144 7.42501 23.5012 7.07446 21.3302C7.04216 21.1349 7.01631 20.9396 6.99369 20.7427C6.95169 20.3521 6.93069 19.9582 6.92908 19.5644C6.921 17.4226 7.54132 15.3264 8.71412 13.5395C9.00813 13.0886 9.33767 12.659 9.6963 12.2586C9.84815 12.0894 10.0065 11.9201 10.1728 11.7574C12.1566 9.79463 14.8172 8.68143 17.5989 8.65051H17.8558C20.2192 8.67004 22.5114 9.47238 24.3756 10.9339C24.311 10.693 24.2383 10.4538 24.156 10.2178C24.0897 10.0306 24.0203 9.84996 23.9443 9.66931C23.5162 8.63586 22.9137 7.68541 22.1641 6.86028L22.1205 6.82773C21.4921 6.60802 20.8476 6.43714 20.1917 6.3167C18.4971 6.0026 16.7573 6.01887 15.0676 6.3639C14.276 6.52502 13.5022 6.75775 12.7527 7.06209C12.3924 7.20693 12.0419 7.36805 11.7107 7.53731C10.9806 7.91001 10.2859 8.35105 9.63491 8.85232L9.57676 8.89626C9.16482 9.22012 8.77227 9.56678 8.39911 9.93459C7.56717 10.7548 6.84346 11.6809 6.2506 12.6915C5.91136 13.2693 5.61735 13.8731 5.37019 14.4964L5.36373 14.6445H5.30881H5.31042ZM13.3762 4.4272C12.5717 4.4272 11.7673 4.50044 10.9757 4.64691C10.8723 4.66318 10.7706 4.68271 10.6704 4.70713C10.3005 4.78362 9.92731 4.87801 9.55899 4.99031C9.34414 5.05378 9.12929 5.12376 8.91767 5.19862C8.70605 5.27349 8.50896 5.34998 8.30865 5.43135C5.58989 6.53479 3.31376 8.52031 1.84211 11.0738C1.65472 11.3944 1.47541 11.733 1.31387 12.078C1.18302 12.353 1.06025 12.6313 0.950396 12.9112C-1.64882 19.4879 1.25248 26.9678 7.58978 30.0258L7.77556 30.1153C7.65279 29.9965 7.53001 29.8761 7.41047 29.754C5.4865 27.7783 4.16509 25.2915 3.59807 22.5834C3.548 22.4938 3.48338 22.3523 3.42199 22.2074C3.32345 21.9812 3.23622 21.7501 3.15383 21.5141C2.1975 18.7881 2.35743 15.7886 3.6013 13.183C3.81131 12.7436 4.04716 12.3172 4.31209 11.9087C4.60933 11.4514 4.94049 11.0169 5.30234 10.61C5.48327 10.4049 5.67228 10.208 5.86936 10.0192C6.23606 9.66117 6.63022 9.33242 7.04539 9.03459C7.68025 8.57727 8.36357 8.18993 9.08082 7.88071C10.7641 6.58849 12.7171 5.69501 14.7913 5.27023C15.5603 5.10911 16.3421 5.01147 17.1272 4.97892L16.9512 4.92684C15.7897 4.59646 14.5878 4.42883 13.3795 4.4272H13.3762ZM15.6459 28.0387L15.822 28.0875C17.7653 28.6278 19.804 28.7206 21.7894 28.3609L21.8443 28.3511C21.9331 28.3349 22.0204 28.3186 22.1092 28.2991C22.4743 28.2258 22.8345 28.1331 23.2174 28.0191C23.6002 27.9052 23.9799 27.7734 24.3627 27.6204L24.4936 27.7978L24.4144 27.5992C26.0298 26.9434 27.5015 25.9734 28.7438 24.743C29.5773 23.9211 30.301 22.9918 30.8955 21.9812C31.2396 21.3937 31.5384 20.7801 31.7888 20.147C33.7629 15.193 32.6466 9.53097 28.9425 5.71453C27.8117 4.546 26.4773 3.59718 25.0073 2.91527C26.655 4.50044 27.907 6.45504 28.6598 8.62121C28.8698 9.22338 29.0426 9.83857 29.1751 10.4635C29.2219 10.553 29.2849 10.6914 29.3447 10.8281C29.6872 11.6353 29.9311 12.4816 30.0716 13.3474C30.1669 13.9382 30.2154 14.5338 30.2154 15.1328C30.2203 17.268 29.5983 19.3577 28.432 21.1398C28.138 21.5906 27.8084 22.0186 27.4482 22.419C27.2963 22.5899 27.138 22.7575 26.9716 22.9202L26.8957 22.9935C25.9604 23.9032 24.8684 24.6324 23.6729 25.1483C22.5001 26.0352 21.1997 26.7351 19.8153 27.2217C19.2144 27.4349 18.5989 27.609 17.9753 27.7425C17.2096 27.9036 16.431 28.0029 15.6491 28.0387H15.6459ZM10.609 26.1736C11.2406 26.3982 11.8884 26.5723 12.5475 26.6944C14.2518 27.0199 16.0029 27.0036 17.7007 26.6455C18.292 26.5219 18.8735 26.3575 19.4438 26.1557C19.6441 26.0841 19.8428 26.0076 20.0366 25.9294C20.3775 25.7911 20.7103 25.6381 21.0269 25.477C23.3192 24.3182 25.2286 22.515 26.5225 20.2837C26.7083 19.968 26.886 19.6295 27.0508 19.2763C27.1752 19.0094 27.2899 18.749 27.3965 18.4821L27.411 18.4398C28.3447 16.1011 28.5984 13.5427 28.146 11.0641V11.0575C28.1315 10.9615 28.1121 10.8655 28.0911 10.7695C28.0168 10.4 27.9231 10.0208 27.8084 9.63839C27.7438 9.4203 27.676 9.20548 27.6 8.98902C27.5306 8.7921 27.4579 8.5968 27.3803 8.40639C26.2932 5.66897 24.3353 3.37422 21.812 1.88019C21.4711 1.67676 21.1222 1.49123 20.7765 1.3236C20.5196 1.19991 20.2612 1.08436 19.9995 0.978573C13.4618 -1.67585 6.00182 1.24222 2.95837 7.64635C2.9309 7.70331 2.90344 7.7619 2.87759 7.82375C4.45263 6.16046 6.39437 4.89754 8.54773 4.13588C9.14221 3.92594 9.74799 3.75342 10.3635 3.61997C10.462 3.56626 10.609 3.49791 10.7576 3.43606C10.9692 3.34655 11.1873 3.25867 11.4086 3.18055C12.0128 2.96735 12.6331 2.80623 13.2632 2.70045C15.9496 2.26265 18.7007 2.85668 20.972 4.36698C21.4162 4.65993 21.8394 4.98542 22.2352 5.34347C22.4323 5.52086 22.6229 5.70477 22.8087 5.89681C23.7101 6.84075 24.4338 7.94255 24.9459 9.14689C25.0412 9.37474 25.1317 9.60258 25.2108 9.83857C25.4224 10.4407 25.5808 11.0608 25.6841 11.6923C25.7181 11.8892 25.7439 12.0877 25.7665 12.2863C25.9878 14.3027 25.6405 16.342 24.7634 18.1696C24.3191 19.1038 23.7473 19.9713 23.0623 20.7443C21.0366 23.0114 18.1643 24.3264 15.137 24.3687C14.6023 24.3768 14.0676 24.3427 13.5394 24.2678C12.4247 24.1116 11.3408 23.7828 10.3279 23.2913C9.63814 22.9593 8.98551 22.5541 8.37973 22.0853C8.78358 23.6087 9.54768 25.0099 10.609 26.1687H10.6106L10.609 26.1736ZM8.07926 20.3146C8.8692 21.1251 9.79322 21.7891 10.8109 22.2774C11.0371 22.3864 11.2681 22.4873 11.5007 22.5785C9.86915 20.8289 8.85951 18.5846 8.63012 16.1955C8.1568 17.5138 7.96941 18.9183 8.08087 20.3163V20.313L8.07926 20.3146ZM21.2498 10.4277C22.8733 12.1756 23.8829 14.4118 24.1269 16.7928C24.6002 15.4875 24.7892 14.0944 24.6826 12.7094V12.7046C23.7133 11.7069 22.5421 10.9306 21.2514 10.4261L21.2498 10.4277Z"></path>
<defs>
<radialGradient gradientTransform="translate(16.3745 16.5015) scale(16.3755 16.4978)" gradientUnits="userSpaceOnUse" r="1" cy="0" cx="0" id="paint0_radial_7867_44825">
<stop stop-color="#FDC300"></stop>
<stop stop-color="#FDC109" offset="0.09"></stop>
<stop stop-color="#FDBC21" offset="0.25"></stop>
<stop stop-color="#FEB348" offset="0.44"></stop>
<stop stop-color="#FEA77E" offset="0.66"></stop>
<stop stop-color="#FF98C3" offset="0.91"></stop>
<stop stop-color="#FF92DE" offset="1"></stop>
</radialGradient>
</defs>
</svg>
