<?xml version="1.0" encoding="UTF-8"?>
<svg width="1037px" height="495px" viewBox="0 0 1037 495" version="1.1" xmlns="http://www.w3.org/2000/svg" xmlns:xlink="http://www.w3.org/1999/xlink">
    <!-- Generator: Sketch 49.2 (51160) - http://www.bohemiancoding.com/sketch -->
    <title>Group 10</title>
    <desc>Created with Sketch.</desc>
    <defs></defs>
    <g id="Login" stroke="none" stroke-width="1" fill="none" fill-rule="evenodd">
        <g transform="translate(-203.000000, -146.000000)" id="Group-10" stroke="#000000">
            <g transform="translate(202.000000, 138.000000)">
                <g id="Group-10-Copy" transform="translate(39.000000, 187.000000) scale(-1, 1) translate(-39.000000, -187.000000) translate(21.000000, 178.000000)" stroke-linecap="round" stroke-linejoin="round" stroke-width="1.2">
                    <path d="M7.50434654,6 C7.50145769,5.92498435 7.5,5.84960171 7.5,5.77387861 C7.5,2.5850535 10.0850535,-1.00282107e-14 13.2738786,-1.06139884e-14 L22.7261214,-1.11927714e-14 C25.9149465,-1.1778549e-14 28.5,2.5850535 28.5,5.77387861 C28.5,8.96270371 25.9149465,11.5477572 22.7261214,11.5477572 L22.4832124,11.5477572 C22.4943377,11.6970495 22.5,11.8478635 22.5,12 C22.5,15.3137085 19.8137085,18 16.5,18 L6.5,18 C3.1862915,18 0.5,15.3137085 0.5,12 C0.5,8.6862915 3.1862915,6 6.5,6 L7.50434654,6 Z" id="Combined-Shape"></path>
                    <path d="M35.6077987,5.8544248 L35.6077987,11.1455752 C35.6077987,13.9069989 33.3692225,16.1455752 30.6077987,16.1455752 L30.589329,16.1455752 C27.8381058,16.1455752 25.6077987,13.9152681 25.6077987,11.1640449" id="Rectangle-4-Copy-31" transform="translate(30.607799, 11.000000) scale(-1, 1) rotate(90.000000) translate(-30.607799, -11.000000) "></path>
                </g>
                <g id="Group-4" transform="translate(968.179048, 95.970819) rotate(-20.000000) translate(-968.179048, -95.970819) translate(947.679048, 28.970819)" stroke-linecap="round">
                    <g id="Group-17">
                        <g id="Group-21-Copy" transform="translate(20.209067, 18.840602) scale(-1, 1) translate(-20.209067, -18.840602) translate(0.209067, 0.840602)">
                            <g id="Group-16" transform="translate(2.153069, 0.000000)">
                                <path d="M18.3010885,13.7720301 C28.4085006,13.7720301 36.6021771,10.6890561 36.6021771,6.88601504 C36.6021771,3.08297395 28.4085006,0 18.3010885,0 C8.19367644,0 0,3.08297395 0,6.88601504 C0,8.69782895 1.85970456,10.3462105 4.90006132,11.5756576" id="Oval-Copy-3" stroke-width="1.2" transform="translate(18.301089, 6.886015) scale(1, -1) translate(-18.301089, -6.886015) "></path>
                                <g id="Group" transform="translate(17.555998, 6.802256) scale(-1, 1) translate(-17.555998, -6.802256) translate(9.055998, 3.159398)" stroke-width="0.8">
                                    <ellipse id="Oval-Copy-3" transform="translate(7.225000, 3.612500) rotate(-1.000000) translate(-7.225000, -3.612500) " cx="7.225" cy="3.6125" rx="6.375" ry="1.9125"></ellipse>
                                    <path d="M10.0053994,-0.723477151 L10.0053994,-0.723477151 C11.2288242,0.125451312 11.9696555,1.51067345 11.9965085,2.99954105 L12.0318183,4.95730081 C12.0551403,6.25038927 12.6518951,7.46624266 13.6605385,8.27572401" id="Path-9" transform="translate(11.832969, 3.776123) rotate(110.000000) translate(-11.832969, -3.776123) "></path>
                                </g>
                                <path d="M36.6021771,17.1507008 C36.6021771,17.504234 36.6021771,16.4007574 36.6021771,13.8402711 C36.6021771,9.99954152 28.4085006,6.88601504 18.3010885,6.88601504 C8.19367644,6.88601504 0,9.99954152 0,13.8402711 C0,15.0601172 0,16.1635938 0,17.1507008" id="Oval-Copy-13" stroke-width="1.2" transform="translate(18.301089, 12.050526) scale(1, -1) translate(-18.301089, -12.050526) "></path>
                            </g>
                            <g id="Group-16-Copy" transform="translate(0.000000, 12.552632)" stroke-width="1.2">
                                <path d="M35.9598195,8.49039925 C36.3786241,7.94830306 36.6021771,7.37780551 36.6021771,6.78888981 C36.6021771,3.22353879 28.4085006,0.333250716 18.3010885,0.333250716 C8.19367644,0.333250716 0,3.22353879 0,6.78888981 C0,7.61913136 0.444306985,8.41276721 1.25362299,9.14182531 C1.45313523,9.32155242 2.08551781,9.62164573 3.15077071,10.0421053" id="Oval-Copy-3" transform="translate(18.301089, 5.187678) scale(1, -1) translate(-18.301089, -5.187678) "></path>
                                <path d="M36.6021771,13.2096091 C36.6021771,13.5410465 36.6021771,12.5065372 36.6021771,10.1060812 C36.6021771,6.50539724 28.4085006,3.58646617 18.3010885,3.58646617 C8.19367644,3.58646617 0,6.50539724 0,10.1060812 C0,11.2496869 0,12.2841962 0,13.2096091" id="Oval-Copy-13" transform="translate(18.301089, 8.428195) scale(1, -1) translate(-18.301089, -8.428195) "></path>
                            </g>
                            <g id="Group-16-Copy-2" transform="translate(2.153069, 21.160150)" stroke-width="1.2">
                                <path d="M33.6158057,10.0421053 C34.5122751,9.61256073 35.0715029,9.30017399 35.2934892,9.10494506 C36.1376944,8.3624971 36.6021771,7.5518824 36.6021771,6.70299976 C36.6021771,3.13764873 28.4085006,0.247360661 18.3010885,0.247360661 C8.19367644,0.247360661 0,3.13764873 0,6.70299976 C0,7.20442875 0.162066443,7.69250536 0.46872997,8.16106735" id="Oval-Copy-3" transform="translate(18.301089, 5.144733) scale(1, -1) translate(-18.301089, -5.144733) "></path>
                                <path d="M36.6021771,13.2096091 C36.6021771,13.5410465 36.6021771,12.5065372 36.6021771,10.1060812 C36.6021771,6.50539724 28.4085006,3.58646617 18.3010885,3.58646617 C8.19367644,3.58646617 0,6.50539724 0,10.1060812 C0,11.2496869 0,12.2841962 0,13.2096091" id="Oval-Copy-13" transform="translate(18.301089, 8.428195) scale(1, -1) translate(-18.301089, -8.428195) "></path>
                            </g>
                        </g>
                    </g>
                    <path d="M39,36 L39,63.5366415" id="Path-7-Copy-12" stroke-width="1.2" stroke-linejoin="round"></path>
                    <path d="M13,41 L13,61.748348" id="Path-7-Copy-5" stroke-width="1.2" stroke-linejoin="round"></path>
                    <path d="M31,48 L31,104.45534" id="Path-7-Copy-13" stroke-width="1.2" stroke-linejoin="round"></path>
                    <path d="M15,119 L15,133.445031" id="Path-7-Copy-16" stroke-width="1.2" stroke-linejoin="round"></path>
                    <path d="M2,37 L2,52.6715295" id="Path-7-Copy-4" stroke-width="1.2" stroke-linejoin="round"></path>
                    <path d="M2,59.1342523 L2,87.3344985" id="Path-7-Copy-6" stroke-width="1.2" stroke-linejoin="round"></path>
                </g>
                <g id="Group-2" transform="translate(204.046470, 39.353556) rotate(25.000000) translate(-204.046470, -39.353556) translate(172.046470, 10.853556)" stroke-linecap="round">
                    <g id="Group-8-Copy" transform="translate(49.927564, 16.323777) rotate(62.000000) translate(-49.927564, -16.323777) translate(35.427564, 8.823777)">
                        <path d="M26.7623186,7.51744678 L28.4313115,3.34496452" id="Path-3-Copy-7"></path>
                        <path d="M19.2518505,5.01395743 L19.2518505,0.00697871267" id="Path-3-Copy-15"></path>
                        <path d="M11.4640473,9.14718977 L8.96055799,5.80920396" id="Path-3-Copy-16"></path>
                        <path d="M7.17315749,3.13605539 L6.13517601,1.75112037" id="Path-3-Copy-22"></path>
                        <path d="M5.89725755,14.5633375 L0.501346822,11.6678885" id="Path-3-Copy-17"></path>
                    </g>
                    <g id="Group-8-Copy-2" transform="translate(9.137451, 44.668593) scale(-1, -1) rotate(62.000000) translate(-9.137451, -44.668593) translate(-1.862549, 40.168593)">
                        <path d="M19.7623186,7.51744678 L21.4313115,3.34496452" id="Path-3-Copy-7"></path>
                        <path d="M12.2518505,5.01395743 L12.2518505,0.00697871267" id="Path-3-Copy-15"></path>
                        <path d="M5.8164665,8.73371374 L3.31297714,5.39572793" id="Path-3-Copy-16"></path>
                        <path d="M1.52557665,2.72257936 L0.487595161,1.33764434" id="Path-3-Copy-22"></path>
                    </g>
                    <g id="Group-3" transform="translate(12.620982, 19.170609)">
                        <path d="M14.1769966,23 L33,23 C34.6568542,23 36,21.6568542 36,20 L36,3 C36,1.34314575 34.6568542,-3.04359188e-16 33,0 L4,0 C2.34314575,3.04359188e-16 1,1.34314575 1,3 L1,20 C1,21.6568542 2.34314575,23 4,23 L7.94479219,23" id="Rectangle-4-Copy-22" stroke-width="1.2" stroke-linejoin="round" transform="translate(18.500000, 11.500000) scale(-1, 1) translate(-18.500000, -11.500000) "></path>
                        <path d="M34.6968174,1.0980642 L20.2725285,12.5141366 C19.2240504,13.3439524 17.7529635,13.3797038 16.6654133,12.6017995 L2.30710549,2.33156963" id="Path-3-Copy-16" stroke-width="1.2"></path>
                        <path d="" id="Path-3-Copy-27" stroke-width="2"></path>
                        <path d="" id="Path-3-Copy-28" stroke-width="2" transform="translate(6.203857, 12.875146) scale(-1, 1) translate(-6.203857, -12.875146) "></path>
                    </g>
                    <polygon id="Star" stroke-linejoin="round" transform="translate(12.834034, 8.383661) rotate(-10.000000) translate(-12.834034, -8.383661) " points="12.8340341 10.6336608 10.1890005 12.0242373 10.694157 9.07894902 8.5542798 6.99308431 11.5115173 6.56337255 12.8340341 3.88366079 14.1565509 6.56337255 17.1137884 6.99308431 14.9739113 9.07894902 15.4790678 12.0242373"></polygon>
                    <polyline id="Star-Copy" stroke-linejoin="round" transform="translate(49.996202, 52.421090) rotate(20.000000) translate(-49.996202, -52.421090) " points="49.9962017 54.4886164 47.9554306 55.5615133 48.3451832 53.2890813 46.6941648 51.6797361 48.9758162 51.3481927 49.9962017 49.2806658 51.0165872 51.3481927 53.2982386 51.6797361 51.6472201 53.2890813 52.0369727 55.5615133"></polyline>
                </g>
                <g id="Group-7" transform="translate(118.447441, 457.167296) rotate(-30.000000) translate(-118.447441, -457.167296) translate(96.447441, 406.167296)">
                    <g id="Group-6" transform="translate(0.000000, 41.000000)" stroke-linecap="round" stroke-linejoin="round">
                        <path d="M39.8932546,-5.68434189e-14 L39.8932546,-5.68434189e-14 C33.9517093,-5.57519747e-14 29.1351351,4.81657416 29.1351351,10.7581195 L29.1351351,43.8733725" id="Path-7-Copy-13"></path>
                        <path d="M43.4608222,2.98507463 L42.3027027,2.98507463 C37.0007691,2.98507463 32.7027027,7.28314103 32.7027027,12.5850746 L32.7027027,33.680772" id="Path-7-Copy-17"></path>
                        <path d="M13.7310925,5.34328358 L13.7310925,5.34328358 C7.78954714,5.34328358 2.97297297,10.1598577 2.97297297,16.1014031 L2.97297297,55.2166561" id="Path-7-Copy-14" transform="translate(8.352033, 30.279970) scale(-1, 1) translate(-8.352033, -30.279970) "></path>
                        <path d="M19.5945946,49 L19.5945946,60.7543469" id="Path-7-Copy-18" transform="translate(19.594595, 54.877173) scale(-1, 1) translate(-19.594595, -54.877173) "></path>
                        <path d="M24.5945946,13 L24.5945946,30.7244961" id="Path-7-Copy-19" transform="translate(24.594595, 21.862248) scale(-1, 1) translate(-24.594595, -21.862248) "></path>
                        <path d="M10.7581195,8.32835821 L10.2,8.32835821 C4.56669555,8.32835821 -5.57569428e-14,12.8950538 -5.5067062e-14,18.5283582 L-5.68434189e-14,33.2650445" id="Path-7-Copy-15" transform="translate(5.379060, 20.796701) scale(-1, 1) translate(-5.379060, -20.796701) "></path>
                    </g>
                    <g id="Group-21-Copy-5" transform="translate(20.213298, 20.116472) rotate(10.000000) translate(-20.213298, -20.116472) translate(7.213298, 2.029516)">
                        <path d="M4.65443822,12.9601406 C1.50716076,18.3515839 0.0141880287,23.3275321 0.175520032,27.8879852 C0.336852035,32.4484383 3.18203025,34.9195406 8.71105468,35.3012921 C21.0525184,35.223957 26.6326651,32.136636 25.4514947,26.039329 C24.2703244,19.942022 21.1243503,15.5822925 16.0135726,12.9601406 L20.1097255,4.05921939 L15.8729838,6.23655122 C15.1218568,6.62256782 14.223124,6.58539737 13.5064381,6.13867388 L13.0291249,5.84115577 C12.2498717,5.35543293 11.2617783,5.3569087 10.4839794,5.84495709 L8.40969068,7.14651894 C7.7054602,7.58840512 6.82269783,7.63434944 6.07639965,7.26795758 L1.44676987,4.99506086 L4.65443822,12.9601406 Z" id="Path-6" stroke-linecap="round" stroke-linejoin="round"></path>
                        <g id="Group" transform="translate(10.840311, 26.154536) rotate(10.000000) translate(-10.840311, -26.154536) translate(4.735963, 20.728449)">
                            <circle id="Oval-Copy-3" cx="4.74782609" cy="4.74782609" r="4.74782609"></circle>
                            <path d="M6.60227524,3.58322686 L6.99763285,3.95473452 C8.11905367,5.00850566 8.18584355,6.76771447 7.14755039,7.903481 L6.9734567,8.09391834 C6.01338248,9.14412285 6.01837564,10.754868 6.98494242,11.7991001" id="Path-9" stroke-linecap="square" transform="translate(7.070609, 7.691163) rotate(110.000000) translate(-7.070609, -7.691163) "></path>
                        </g>
                        <path d="M4.84560361,13.047034 C8.08238123,15.200541 11.0117012,15.713067 13.6335635,14.584612" id="Path-7" stroke-linecap="round" stroke-linejoin="round"></path>
                        <path d="M1.39080118,4.84484856 C1.1313195,2.47075966 2.58783495,1.65638916 5.76034754,2.40173706 C10.5191164,3.51975889 11.4383748,-0.704099809 15.4226703,1.54223407" id="Path-7-Copy" stroke-linecap="round" stroke-linejoin="round"></path>
                    </g>
                </g>
                <g id="Group-11" transform="translate(927.336555, 450.496987) rotate(20.000000) translate(-927.336555, -450.496987) translate(879.336555, 385.496987)" stroke-linecap="round" stroke-width="1.2">
                    <path d="M12.490358,49.6240602 L5.69732091,49.6240602 L8.98478992,33.1867151 C9.1717596,32.2518667 9.99258923,31.5789474 10.9459513,31.5789474 L43.849114,31.5789474 C44.802476,31.5789474 45.6233057,32.2518667 45.8102754,33.1867151 L49.0977444,49.6240602 L16.6519215,49.6240602" id="Rectangle-12" stroke-linejoin="round"></path>
                    <path d="M79.545868,49.6240602 L51.8045113,49.6240602 L55.0919803,33.1867151 C55.27895,32.2518667 56.0997796,31.5789474 57.0531416,31.5789474 L89.9563044,31.5789474 C90.9096664,31.5789474 91.730496,32.2518667 91.9174657,33.1867151 L95.2049347,49.6240602 L86.1223295,49.6240602" id="Rectangle-12-Copy" stroke-linejoin="round"></path>
                    <path d="M60.4020596,28.8721805 L26.5413534,28.8721805 L29.8288224,12.4348354 C30.0157921,11.499987 30.8366217,10.8270677 31.7899837,10.8270677 L64.6931465,10.8270677 C65.6465085,10.8270677 66.4673381,11.499987 66.6543078,12.4348354 L69.9417768,28.8721805 L64.5636231,28.8721805" id="Rectangle-12-Copy-5" stroke-linejoin="round"></path>
                    <path d="M80.3944913,3.60902256 L73.4586466,10.5003109" id="Path-3-Copy-21"></path>
                    <path d="M4.69852239,129.664835 L4.69852239,57.8980371" id="Path-3-Copy-89"></path>
                    <path d="M95,89.8783389 L95,58" id="Path-3-Copy-91"></path>
                    <path d="M88.517541,103.616022 L88.517541,64.2638389" id="Path-3-Copy-92"></path>
                    <path d="M14.6985224,75.3685894 L14.6985224,57.8980371" id="Path-3-Copy-90"></path>
                    <path d="M69.5674236,0 L67.9820611,5.14199586" id="Path-3-Copy-81"></path>
                    <path d="M23.4319746,6.9225134 L26.7018722,8.73902155" id="Path-3-Copy-84"></path>
                    <path d="M21.1293216,13.2478632 L25.6467045,13.2478632" id="Path-3-Copy-86"></path>
                    <path d="M29.7367863,1.7623818 L29.7367863,6.44131579" id="Path-3-Copy-85"></path>
                    <path d="M7.59512589,24.755493 L9.03759398,28.0072266" id="Path-3-Copy-82"></path>
                    <path d="M0.359112522,30.7520014 L4.38924476,31.592795" id="Path-3-Copy-83"></path>
                </g>
                <g id="Group" transform="translate(1003.000000, 328.000000)" stroke-linecap="round" stroke-linejoin="round" stroke-width="1.2">
                    <path d="M0,6.39863711 C5.07720686,5.12317023 9.33772391,5.38366229 12.7815511,7.18011329 C13.8959462,2.91315337 17.1300344,0.519782275 22.4838158,0" id="Path-3-Copy-7"></path>
                    <path d="M18,14.6239969 C21.6130571,13.7163453 24.6449389,13.9017175 27.0956455,15.1801133 C27.8886746,12.1436466 30.1901261,10.4404687 34,10.0705797" id="Path-3-Copy-12"></path>
                </g>
                <polygon id="Star" stroke-linecap="round" stroke-linejoin="round" transform="translate(9.117457, 215.802687) rotate(-10.000000) translate(-9.117457, -215.802687) " points="9.11745706 220.767025 4.21736216 223.343158 5.15319701 217.886822 1.18893696 214.022623 6.66740961 213.226555 9.11745706 208.262216 11.5675045 213.226555 17.0459772 214.022623 13.0817171 217.886822 14.017552 223.343158"></polygon>
                <polygon id="Star-Copy-7" stroke-linecap="round" stroke-linejoin="round" transform="translate(1017.394223, 39.138946) rotate(10.000000) translate(-1017.394223, -39.138946) " points="1017.39422 43.1650056 1013.42026 45.2542392 1014.17922 40.8291714 1010.96422 37.695321 1015.40724 37.0497124 1017.39422 33.0236527 1019.3812 37.0497124 1023.82422 37.695321 1020.60922 40.8291714 1021.36818 45.2542392"></polygon>
            </g>
        </g>
    </g>
</svg>