<?xml version="1.0" encoding="UTF-8"?>
<svg width="47px" height="42px" viewBox="0 0 47 42" version="1.1" xmlns="http://www.w3.org/2000/svg" xmlns:xlink="http://www.w3.org/1999/xlink">
    <!-- Generator: Sketch 49.2 (51160) - http://www.bohemiancoding.com/sketch -->
    <title>Group 59</title>
    <desc>Created with Sketch.</desc>
    <defs></defs>
    <g id="Vision" stroke="none" stroke-width="1" fill="none" fill-rule="evenodd" stroke-linecap="round" stroke-linejoin="round">
        <g id="Vision---Mobile" transform="translate(-27.000000, -8511.000000)" stroke="#000000">
            <g id="Group-59" transform="translate(28.000000, 8512.000000)">
                <polyline id="Path-3-Copy-71" stroke-width="1.2" points="26.1204584 18.944799 26.1204584 40 0 40 0 5.88916188 21.3006782 5.88916188 26.1204584 9.70915263 26.1204584 15.4567041"></polyline>
                <polyline id="Path-3-Copy-101" stroke-width="1.2" points="21.2397747 6.16605044 21.2397747 10.5386415 23.5031182 10.5386415"></polyline>
                <path d="M4.52485737,13.4814175 L17.6744845,13.4814175" id="Path-3-Copy-104"></path>
                <g id="Group-62" transform="translate(8.839286, 0.000000)" stroke-width="1.2">
                    <path d="M28.1419413,7.47170635 L33.0403216,7.47170635" id="Path-3-Copy-122"></path>
                    <path d="M0.444001987,4.01247182 L0.444001987,4.01247182 C0.444001987,1.79644482 2.24044681,4.07077555e-16 4.45647381,0 L30.3737299,0" id="Path-3-Copy-121"></path>
                    <path d="M20.127949,35.6517711 L22.8928571,35.6517711 C24.5497114,35.6517711 25.8928571,34.3086253 25.8928571,32.6517711 L25.8928571,20.3258855 L25.8928571,4 C25.8928571,1.790861 27.6837181,4.05812251e-16 29.8928571,0 L31.8487104,4.88498131e-15 C33.9134619,2.67182486e-15 35.5872737,1.67381183 35.5872737,3.73856336 L35.5872737,4.62458687 C35.5872737,6.20000112 34.3101481,7.47712671 32.7347339,7.47712671 L32.7347339,7.47712671 C31.1593196,7.47712671 29.882194,6.20000112 29.882194,4.62458687 L29.882194,4.19745751 L25.8928571,4.19745751" id="Path-3-Copy-120"></path>
                </g>
                <path d="M4.52485737,17.4992746 L12.8530559,17.4992746" id="Path-3-Copy-105"></path>
                <path d="M4.52485737,24.7314175 L19.2816273,24.7314175" id="Path-3-Copy-106" stroke-width="2"></path>
                <path d="M4.52485737,28.7492746 L17.6744845,28.7492746" id="Path-3-Copy-107"></path>
                <path d="M4.52485737,31.9635603 L14.4601988,31.9635603" id="Path-3-Copy-108"></path>
            </g>
        </g>
    </g>
</svg>