<?xml version="1.0" encoding="UTF-8"?>
<svg width="49px" height="36px" viewBox="0 0 49 36" version="1.1" xmlns="http://www.w3.org/2000/svg" xmlns:xlink="http://www.w3.org/1999/xlink">
    <!-- Generator: Sketch 49.2 (51160) - http://www.bohemiancoding.com/sketch -->
    <title>Group 58</title>
    <desc>Created with Sketch.</desc>
    <defs></defs>
    <g id="Vision" stroke="none" stroke-width="1" fill="none" fill-rule="evenodd" stroke-linecap="round" stroke-linejoin="round">
        <g id="Vision---Mobile" transform="translate(-22.000000, -8914.000000)" stroke="#000000">
            <g id="Group-58" transform="translate(45.799287, 8931.980553) rotate(-20.000000) translate(-45.799287, -8931.980553) translate(24.299287, 8918.543053)">
                <path d="M34.143397,26.8701443 L8.27873134,26.8701443 C6.62187709,26.8701443 5.27873134,25.5269985 5.27873134,23.8701443 L5.27873134,7.19502135 C5.27873134,5.5381671 6.62187709,4.19502135 8.27873134,4.19502135 L39.7882132,4.19502135 C41.4450674,4.19502135 42.7882132,5.5381671 42.7882132,7.19502135 L42.7882132,23.8701443 C42.7882132,25.5269985 41.4450674,26.8701443 39.7882132,26.8701443 L38.1122568,26.8701443" id="Path-3-Copy-71" stroke-width="1.2" transform="translate(24.033472, 15.532583) scale(-1, 1) translate(-24.033472, -15.532583) "></path>
                <path d="M4.91885939,23.3402935 L3.86641791,23.3402935 C2.20956366,23.3402935 0.86641791,21.9971478 0.86641791,20.3402935 L0.86641791,3.6651706 C0.86641791,2.00831636 2.20956366,0.665170605 3.86641791,0.665170605 L35.3758998,0.665170605 C37.032754,0.665170605 38.3758998,2.00831636 38.3758998,3.6651706 L38.3758998,3.92611443" id="Path-3-Copy-90" stroke-width="1.2" stroke-dasharray="2,4"></path>
                <path d="M6.16119403,10.5895522 L37.2411918,10.5895522" id="Path-3-Copy-106" stroke-width="2"></path>
                <path d="M8.72008128,14.119403 L41.948987,14.119403" id="Path-3-Copy-117" stroke-width="1.2"></path>
            </g>
        </g>
    </g>
</svg>