<?xml version="1.0" encoding="UTF-8"?>
<svg width="50px" height="48px" viewBox="0 0 50 48" version="1.1" xmlns="http://www.w3.org/2000/svg" xmlns:xlink="http://www.w3.org/1999/xlink">
    <!-- Generator: Sketch 49.2 (51160) - http://www.bohemiancoding.com/sketch -->
    <title>Group 64</title>
    <desc>Created with Sketch.</desc>
    <defs></defs>
    <g id="Vision" stroke="none" stroke-width="1" fill="none" fill-rule="evenodd" stroke-linecap="round">
        <g id="Vision---Mobile" transform="translate(-22.000000, -9340.000000)" stroke="#000000">
            <g id="Group-64" transform="translate(22.000000, 9337.000000)">
                <g id="Group-61" transform="translate(0.000000, 13.398693)">
                    <path d="M3.73482726,35.0485528 L44.9909895,34.9707678" id="Path-3-Copy-115" stroke-linejoin="round"></path>
                    <path d="M19.6078431,36.9937513 L49.9963887,36.9159664" id="Path-3-Copy-118" stroke-linejoin="round"></path>
                    <path d="M0,36.9937513 L16.9896313,36.9159664" id="Path-3-Copy-119" stroke-linejoin="round"></path>
                    <path d="M9.60455534,14.44695 L9.44102867,14.44695 C8.61010481,14.44695 7.93650794,13.7733531 7.93650794,12.9424292 L7.93650794,12.9424292 C7.93650794,12.1115054 8.61010481,11.4379085 9.44102867,11.4379085 L10.1103227,11.4379085 C11.3108874,11.4379085 12.2841374,12.4111585 12.2841374,13.6117232 L12.2841374,32.4341458" id="Combined-Shape" stroke-linejoin="round"></path>
                    <path d="M7.92388307,16.0342515 L7.92388307,16.0342515 C6.38383948,16.0342515 5.13538749,14.7857995 5.13538749,13.245756 L5.13538749,12.5689465 C5.13538749,10.6551114 6.6868574,9.10364146 8.60069253,9.10364146 L10.1103227,9.10364146 C12.8579035,9.10364146 15.0852579,11.3309958 15.0852579,14.0785767 L15.0852579,32.3407751" id="Combined-Shape-Copy-2" stroke-linejoin="round"></path>
                    <path d="M38.6895227,14.44695 L38.525996,14.44695 C37.6950721,14.44695 37.0214753,13.7733531 37.0214753,12.9424292 L37.0214753,12.9424292 C37.0214753,12.1115054 37.6950721,11.4379085 38.525996,11.4379085 L39.19529,11.4379085 C40.3958547,11.4379085 41.3691048,12.4111585 41.3691048,13.6117232 L41.3691048,32.4341458" id="Combined-Shape-Copy-4" stroke-linejoin="round" transform="translate(39.195290, 21.936027) scale(-1, 1) translate(-39.195290, -21.936027) "></path>
                    <path d="M37.0088504,16.0342515 L37.0088504,16.0342515 C35.4688068,16.0342515 34.2203548,14.7857995 34.2203548,13.245756 L34.2203548,12.5689465 C34.2203548,10.6551114 35.7718247,9.10364146 37.6856599,9.10364146 L39.19529,9.10364146 C41.9428709,9.10364146 44.1702252,11.3309958 44.1702252,14.0785767 L44.1702252,32.3407751" id="Combined-Shape-Copy-3" stroke-linejoin="round" transform="translate(39.195290, 20.722208) scale(-1, 1) translate(-39.195290, -20.722208) "></path>
                    <polyline id="Rectangle-4-Copy-17" stroke-linejoin="round" points="32.142419 4.43510738 3.73482726 4.43510738 3.73482726 7.23622782 44.844605 7.23622782 44.844605 5.5752458"></polyline>
                    <path d="M20.5066665,16.7768863 C21.6439324,16.7768863 22.5658685,15.8549501 22.5658685,14.7176842 C22.5658685,13.5804183 21.6439324,12.6584822 20.5066665,12.6584822 C19.3694006,12.6584822 18.4474644,13.5804183 18.4474644,14.7176842 C18.4474644,15.2594912 18.6567147,15.7524252 18.9988096,16.1200805" id="Oval-Copy-3" transform="translate(20.506666, 14.717684) rotate(-150.000000) translate(-20.506666, -14.717684) "></path>
                    <path d="M28.6766011,16.7768863 C29.813867,16.7768863 30.7358032,15.8549501 30.7358032,14.7176842 C30.7358032,13.5804183 29.813867,12.6584822 28.6766011,12.6584822 C27.5393352,12.6584822 26.6173991,13.5804183 26.6173991,14.7176842 C26.6173991,15.2594912 26.8266493,15.7524252 27.1687442,16.1200805" id="Oval-Copy-11" transform="translate(28.676601, 14.717684) rotate(-150.000000) translate(-28.676601, -14.717684) "></path>
                    <path d="M29.5051354,32.3445126 L29.5051354,25.6844071 C29.5051354,22.8997781 27.2477476,20.6423903 24.4631186,20.6423903 L24.4631186,20.6423903 C21.6784896,20.6423903 19.4211018,22.8997781 19.4211018,25.6844071 L19.4211018,32.3445126" id="Rectangle-4-Copy-33" stroke-linejoin="round"></path>
                    <path d="M24.7,28.4143264 L24.7,26.178338" id="Path-3-Copy-25"></path>
                    <polyline id="Rectangle-4-Copy-30" stroke-linejoin="round" transform="translate(7.984262, 3.034547) scale(-1, -1) translate(-7.984262, -3.034547) " points="6.53594771 4.43510738 9.4325762 4.43510738 9.4325762 1.63398693"></polyline>
                    <path d="M29.4097771,1.63398693 L11.7208085,1.63398693" id="Rectangle-4-Copy-65" stroke-linejoin="round" transform="translate(20.565293, 1.633987) scale(-1, -1) translate(-20.565293, -1.633987) "></path>
                </g>
                <g id="Group-63" transform="translate(38.582887, 10.809096) rotate(5.000000) translate(-38.582887, -10.809096) translate(29.082887, 1.309096)" stroke-linejoin="round">
                    <path d="M9.57716062,16.4399057 C13.3673501,16.4399057 16.4399057,13.3673501 16.4399057,9.57716062 C16.4399057,5.78697116 13.3673501,2.71441552 9.57716062,2.71441552 C5.78697116,2.71441552 2.71441552,5.78697116 2.71441552,9.57716062 C2.71441552,11.3828519 3.41178816,13.025663 4.55189484,14.2509555" id="Oval-Copy-11" stroke-width="1.2" stroke-dasharray="2,4" transform="translate(9.577161, 9.577161) rotate(-150.000000) translate(-9.577161, -9.577161) "></path>
                    <g id="Group-46" transform="translate(9.864515, 9.593273) scale(1, -1) translate(-9.864515, -9.593273) translate(7.364515, 6.593273)" stroke-width="1.4">
                        <path d="M0.147190047,5.12860856 L4.91804441,0.463393949" id="Path-13-Copy"></path>
                        <path d="M0.302920829,0.625086904 L4.59699788,5.62094856" id="Path-13-Copy-2"></path>
                    </g>
                </g>
            </g>
        </g>
    </g>
</svg>