<?xml version="1.0" encoding="UTF-8"?>
<svg width="310px" height="142px" viewBox="0 0 310 142" version="1.1" xmlns="http://www.w3.org/2000/svg" xmlns:xlink="http://www.w3.org/1999/xlink">
    <!-- Generator: Sketch 49.2 (51160) - http://www.bohemiancoding.com/sketch -->
    <title>Group 54</title>
    <desc>Created with Sketch.</desc>
    <defs></defs>
    <g id="Vision" stroke="none" stroke-width="1" fill="none" fill-rule="evenodd">
        <g id="Vision---Mobile" transform="translate(-33.000000, -7904.000000)" stroke="#000000">
            <g id="Group-54" transform="translate(188.000000, 7975.000000) rotate(90.000000) translate(-188.000000, -7975.000000) translate(118.000000, 7821.000000)">
                <g id="Group-4" transform="translate(69.066667, 240.800000) rotate(-90.000000) translate(-69.066667, -240.800000) translate(40.133333, 210.933333)" stroke-linecap="round" stroke-width="1.2">
                    <g id="Group-39" transform="translate(0.329412, 33.160784)">
                        <g id="Group-16-Copy-5" transform="translate(0.572340, 0.356275)">
                            <path d="M12.7527947,9.59679924 C19.7959688,9.59679924 25.5055895,7.44848255 25.5055895,4.79839962 C25.5055895,2.14831669 19.7959688,0 12.7527947,0 C5.70962068,0 0,2.14831669 0,4.79839962 C0,6.06093058 1.29590273,7.20957653 3.41452237,8.06629534" id="Oval-Copy-3" transform="translate(12.752795, 4.798400) scale(1, -1) translate(-12.752795, -4.798400) "></path>
                            <path d="M25.5055895,11.9511671 C25.5055895,12.1975205 25.5055895,11.4285821 25.5055895,9.64435179 C25.5055895,6.96800631 19.7959688,4.79839962 12.7527947,4.79839962 C5.70962068,4.79839962 0,6.96800631 0,9.64435179 C0,10.4943803 0,11.2633187 0,11.9511671" id="Oval-Copy-13" transform="translate(12.752795, 8.397199) scale(1, -1) translate(-12.752795, -8.397199) "></path>
                        </g>
                        <g id="Group-16-Copy-4" transform="translate(0.572340, 9.353275)">
                            <path d="M24.5936531,6.74774946 C25.1819228,6.23038754 25.5055895,5.6655248 25.5055895,5.07399572 C25.5055895,2.58954297 19.7959688,0.57549608 12.7527947,0.57549608 C5.70962068,0.57549608 0,2.58954297 0,5.07399572 C0,5.65253508 0.309607582,6.20556639 0.873565341,6.71359784" id="Oval-Copy-3" transform="translate(12.752795, 3.661623) scale(1, -1) translate(-12.752795, -3.661623) "></path>
                            <path d="M25.5055895,8.95496933 C25.5055895,9.18592569 25.5055895,8.4650459 25.5055895,6.79232998 C25.5055895,4.28325609 19.7959688,2.24924982 12.7527947,2.24924982 C5.70962068,2.24924982 0,4.28325609 0,6.79232998 C0,7.5892317 0,8.31011148 0,8.95496933" id="Oval-Copy-13" transform="translate(12.752795, 5.623125) scale(1, -1) translate(-12.752795, -5.623125) "></path>
                        </g>
                        <g id="Group-16-Copy-8" transform="translate(0.572340, 15.351274)">
                            <path d="M24.5936531,6.74774946 C25.1819228,6.23038754 25.5055895,5.6655248 25.5055895,5.07399572 C25.5055895,2.58954297 19.7959688,0.57549608 12.7527947,0.57549608 C5.70962068,0.57549608 0,2.58954297 0,5.07399572 C0,5.65253508 0.309607582,6.20556639 0.873565341,6.71359784" id="Oval-Copy-3" transform="translate(12.752795, 3.661623) scale(1, -1) translate(-12.752795, -3.661623) "></path>
                            <path d="M25.5055895,8.95496933 C25.5055895,9.18592569 25.5055895,8.4650459 25.5055895,6.79232998 C25.5055895,4.28325609 19.7959688,2.24924982 12.7527947,2.24924982 C5.70962068,2.24924982 0,4.28325609 0,6.79232998 C0,7.5892317 0,8.31011148 0,8.95496933" id="Oval-Copy-13" transform="translate(12.752795, 5.623125) scale(1, -1) translate(-12.752795, -5.623125) "></path>
                        </g>
                    </g>
                    <g id="Group-21-Copy" transform="translate(42.918235, 21.439715) scale(-1, 1) translate(-42.918235, -21.439715) translate(28.329412, 0.219608)">
                        <g id="Group-16" transform="translate(1.480641, 0.000000)">
                            <path d="M12.585451,9.47086887 C19.5362037,9.47086887 25.170902,7.35074266 25.170902,4.73543443 C25.170902,2.12012621 19.5362037,0 12.585451,0 C5.63469835,0 0,2.12012621 0,4.73543443 C0,5.98139831 1.27889773,7.11497159 3.36971659,7.96044843" id="Oval-Copy-3" transform="translate(12.585451, 4.735434) scale(1, -1) translate(-12.585451, -4.735434) "></path>
                            <path d="M25.170902,11.7943424 C25.170902,12.0374632 25.170902,11.2786149 25.170902,9.51779743 C25.170902,6.87657128 19.5362037,4.73543443 12.585451,4.73543443 C5.63469835,4.73543443 0,6.87657128 0,9.51779743 C0,10.3566718 0,11.1155201 0,11.7943424" id="Oval-Copy-13" transform="translate(12.585451, 8.287010) scale(1, -1) translate(-12.585451, -8.287010) "></path>
                        </g>
                        <g id="Group-16-Copy" transform="translate(0.000000, 8.632302)">
                            <path d="M24.72916,5.83875126 C25.0171672,5.46595786 25.170902,5.07363317 25.170902,4.66864252 C25.170902,2.21679106 19.5362037,0.229172738 12.585451,0.229172738 C5.63469835,0.229172738 0,2.21679106 0,4.66864252 C0,5.23959021 0.305544874,5.78536458 0.86210231,6.28672957 C0.999304618,6.41032586 1.43418694,6.61669663 2.16674928,6.90584188" id="Oval-Copy-3" transform="translate(12.585451, 3.567507) scale(1, -1) translate(-12.585451, -3.567507) "></path>
                            <path d="M25.170902,9.08409834 C25.170902,9.31202406 25.170902,8.60060375 25.170902,6.94983741 C25.170902,4.47368789 19.5362037,2.4663721 12.585451,2.4663721 C5.63469835,2.4663721 0,4.47368789 0,6.94983741 C0,7.73628209 0,8.4477024 0,9.08409834" id="Oval-Copy-13" transform="translate(12.585451, 5.795974) scale(1, -1) translate(-12.585451, -5.795974) "></path>
                        </g>
                        <g id="Group-16-Copy-2" transform="translate(1.480641, 14.551595)">
                            <path d="M23.1172083,6.90584188 C23.7337001,6.61044898 24.1182747,6.39562417 24.2709322,6.26136744 C24.8514825,5.7507944 25.170902,5.19334386 25.170902,4.6095769 C25.170902,2.15772544 19.5362037,0.170107121 12.585451,0.170107121 C5.63469835,0.170107121 0,2.15772544 0,4.6095769 C0,4.95440393 0.111451255,5.29004868 0.322340284,5.61227345" id="Oval-Copy-3" transform="translate(12.585451, 3.537975) scale(1, -1) translate(-12.585451, -3.537975) "></path>
                            <path d="M25.170902,9.08409834 C25.170902,9.31202406 25.170902,8.60060375 25.170902,6.94983741 C25.170902,4.47368789 19.5362037,2.4663721 12.585451,2.4663721 C5.63469835,2.4663721 0,4.47368789 0,6.94983741 C0,7.73628209 0,8.4477024 0,9.08409834" id="Oval-Copy-13" transform="translate(12.585451, 5.795974) scale(1, -1) translate(-12.585451, -5.795974) "></path>
                        </g>
                        <g id="Group-16-Copy-6" transform="translate(2.961283, 20.470888)">
                            <path d="M23.1172083,6.90584188 C23.7337001,6.61044898 24.1182747,6.39562417 24.2709322,6.26136744 C24.8514825,5.7507944 25.170902,5.19334386 25.170902,4.6095769 C25.170902,2.15772544 19.5362037,0.170107121 12.585451,0.170107121 C5.63469835,0.170107121 0,2.15772544 0,4.6095769 C0,4.95440393 0.111451255,5.29004868 0.322340284,5.61227345" id="Oval-Copy-3" transform="translate(12.585451, 3.537975) scale(1, -1) translate(-12.585451, -3.537975) "></path>
                            <path d="M25.170902,9.08409834 C25.170902,9.31202406 25.170902,8.60060375 25.170902,6.94983741 C25.170902,4.47368789 19.5362037,2.4663721 12.585451,2.4663721 C5.63469835,2.4663721 0,4.47368789 0,6.94983741 C0,7.73628209 0,8.4477024 0,9.08409834" id="Oval-Copy-13" transform="translate(12.585451, 5.795974) scale(1, -1) translate(-12.585451, -5.795974) "></path>
                        </g>
                        <g id="Group-16-Copy-7" transform="translate(13.831062, 37.172416) scale(-1, 1) translate(-13.831062, -37.172416) translate(1.010581, 32.309475)">
                            <path d="M23.1172083,6.90584188 C23.7337001,6.61044898 24.1182747,6.39562417 24.2709322,6.26136744 C24.8514825,5.7507944 25.170902,5.19334386 25.170902,4.6095769 C25.170902,2.15772544 19.5362037,0.170107121 12.585451,0.170107121 C5.63469835,0.170107121 0,2.15772544 0,4.6095769 C0,4.95440393 0.111451255,5.29004868 0.322340284,5.61227345" id="Oval-Copy-3" transform="translate(12.585451, 3.537975) scale(1, -1) translate(-12.585451, -3.537975) "></path>
                            <path d="M25.170902,9.08409834 C25.170902,9.31202406 25.170902,8.60060375 25.170902,6.94983741 C25.170902,4.47368789 19.5362037,2.4663721 12.585451,2.4663721 C5.63469835,2.4663721 0,4.47368789 0,6.94983741 C0,7.73628209 0,8.4477024 0,9.08409834" id="Oval-Copy-13" transform="translate(12.585451, 5.795974) scale(1, -1) translate(-12.585451, -5.795974) "></path>
                        </g>
                        <g id="Group-16-Copy-4" transform="translate(2.961283, 26.636819)">
                            <path d="M24.2709322,6.65920467 C24.8514825,6.14863163 25.170902,5.59118109 25.170902,5.00741413 C25.170902,2.55556267 19.5362037,0.56794435 12.585451,0.56794435 C5.63469835,0.56794435 0,2.55556267 0,5.00741413 C0,5.57836182 0.305544874,6.1241362 0.86210231,6.62550119" id="Oval-Copy-3" transform="translate(12.585451, 3.613575) scale(1, -1) translate(-12.585451, -3.613575) "></path>
                            <path d="M25.170902,8.83746113 C25.170902,9.06538685 25.170902,8.35396654 25.170902,6.7032002 C25.170902,4.22705068 19.5362037,2.21973489 12.585451,2.21973489 C5.63469835,2.21973489 0,4.22705068 0,6.7032002 C0,7.48964488 0,8.20106519 0,8.83746113" id="Oval-Copy-13" transform="translate(12.585451, 5.549337) scale(1, -1) translate(-12.585451, -5.549337) "></path>
                        </g>
                    </g>
                </g>
                <polyline id="Path-26" stroke-linecap="round" stroke-linejoin="round" transform="translate(80.425167, 146.872684) scale(-1, 1) rotate(30.000000) translate(-80.425167, -146.872684) " points="77.7993005 151.511177 83.0510336 146.872684 77.7993005 142.23419"></polyline>
                <polyline id="Path-26-Copy-2" stroke-linecap="round" stroke-linejoin="round" transform="translate(59.013402, 160.872684) scale(1, -1) rotate(30.000000) translate(-59.013402, -160.872684) " points="56.3875358 165.511177 61.6392689 160.872684 56.3875358 156.23419"></polyline>
                <path d="M70,154 C116.666667,123.773288 140,95.7732883 140,70 C140,31.3400675 108.659932,0 70,0 C31.3400675,0 0,31.3400675 0,70 C0,94.1016909 20.4047907,120.150621 61.2143722,148.146791" id="Oval-2" stroke-width="1.2" stroke-linecap="round" stroke-linejoin="round" stroke-dasharray="2,4" transform="translate(70.000000, 77.000000) scale(-1, 1) translate(-70.000000, -77.000000) "></path>
                <g id="Group-21-Copy-4" transform="translate(70.245961, 69.411070) scale(-1, 1) rotate(110.000000) translate(-70.245961, -69.411070) translate(46.501961, 44.875603)" stroke-width="1.2">
                    <path d="M20.1639148,16.7436159 C16.0832737,23.7089921 14.1475416,30.137577 14.3567186,36.0293708 C14.5658956,41.9211645 18.2548462,45.1136598 25.4235705,45.6068566 C41.4250463,45.506945 48.6600537,41.5183372 47.1285928,33.6410333 C45.5971319,25.7637294 41.5181807,20.1312569 34.8917393,16.7436159 L40.2026565,5.24423401 L34.3468987,8.24285731 C33.5975402,8.62658967 32.7019056,8.58961546 31.9867261,8.14542301 L30.6411866,7.30971884 C29.8635186,6.82671531 28.878809,6.82818372 28.1025851,7.31350442 L24.6939989,9.44466438 C23.991247,9.88404798 23.1115252,9.92974773 22.3670286,9.56554573 L16.0049731,6.45327723 L20.1639148,16.7436159 Z" id="Path-6" stroke-linecap="round" stroke-linejoin="round"></path>
                    <g id="Group" transform="translate(32.528917, 33.849915) scale(-1, 1) rotate(10.000000) translate(-32.528917, -33.849915) translate(24.614251, 26.752155)">
                        <ellipse id="Oval-Copy-3" cx="6.20936855" cy="6.18719224" rx="6.20936855" ry="6.18719224"></ellipse>
                        <path d="M8.63468027,4.66952938 L9.15245981,5.15433621 C10.617185,6.52578633 10.704327,8.82096 9.34780967,10.2995256 L9.12017313,10.547643 C7.86571589,11.914966 7.87223277,14.016636 9.13514543,15.376153" id="Path-9" stroke-linecap="square" transform="translate(9.247183, 10.022841) rotate(110.000000) translate(-9.247183, -10.022841) "></path>
                    </g>
                    <path d="M17.2452072,5.32688351 C14.5979556,6.92039518 12.1277164,7.29729041 9.83448945,6.4575692 C7.54126254,5.61784799 5.79693291,6.90694218 4.60150055,10.3248518 L10.6106504,19.9450242 C7.49317257,24.5194615 5.46507722,30.4894246 4.52636438,37.8549134 C3.58765154,45.2204022 8.39277322,48.2445819 18.9417294,46.9274526" id="Path-6-Copy" stroke-linecap="round" stroke-linejoin="round" transform="translate(11.676517, 26.277022) rotate(-10.000000) translate(-11.676517, -26.277022) "></path>
                    <path d="M20.4117726,16.8558761 C24.6084562,19.6380601 28.4065018,20.3002086 31.8059094,18.8423218" id="Path-7" stroke-linecap="round" stroke-linejoin="round"></path>
                    <path d="M9.67187003,20.1626571 C11.0492189,20.9943418 12.7318516,21.0802617 14.7197683,20.4204167" id="Path-7-Copy-3" stroke-linecap="round" stroke-linejoin="round"></path>
                    <path d="M2.21948045,11.972246 C3.05378775,12.5175966 5.00508765,12.7803568 8.07338015,12.7605265 L8.07338029,12.7605473 C8.27725967,12.7592296 8.480476,12.7838969 8.67811939,12.8339532 L11.5380357,13.5582717 C12.2933434,13.7495652 13.0945096,13.5622925 13.6867583,13.0560074 L17.2438555,10.0152146" id="Path-7-Copy-2" stroke-linecap="round" stroke-linejoin="round"></path>
                    <path d="M15.9324063,6.2592132 C15.5959721,3.19205261 17.484435,2.13994159 21.597795,3.10288012 C27.767835,4.54728792 28.9597107,-0.909648829 34.1255978,1.99246101" id="Path-7-Copy" stroke-linecap="round" stroke-linejoin="round"></path>
                </g>
                <path d="M70,308 C116.666667,277.773288 140,249.773288 140,224 C140,185.340068 108.659932,154 70,154 C31.3400675,154 0,185.340068 0,224 C0,248.031736 20.2865135,273.999424 60.8595406,301.903065" id="Oval-2-Copy" stroke-width="1.2" stroke-linecap="round" stroke-linejoin="round" transform="translate(70.000000, 231.000000) scale(1, -1) translate(-70.000000, -231.000000) "></path>
            </g>
        </g>
    </g>
</svg>