<?xml version="1.0" encoding="UTF-8"?>
<svg width="61px" height="52px" viewBox="0 0 61 52" version="1.1" xmlns="http://www.w3.org/2000/svg" xmlns:xlink="http://www.w3.org/1999/xlink">
    <!-- Generator: Sketch 49.2 (51160) - http://www.bohemiancoding.com/sketch -->
    <title>Group 55 Copy</title>
    <desc>Created with Sketch.</desc>
    <defs></defs>
    <g id="Vision" stroke="none" stroke-width="1" fill="none" fill-rule="evenodd" stroke-linecap="round">
        <g id="Vision---Mobile" transform="translate(-18.000000, -9634.000000)" stroke="#000000">
            <g id="Group-55-Copy" transform="translate(47.911522, 9659.818317) scale(-1, 1) rotate(55.000000) translate(-47.911522, -9659.818317) translate(15.911522, 9642.818317)">
                <path d="M13.3272947,21.6000091 L7.28464952,19.216822 L7.28464952,2.23636997 L9.19556166,2.86303464 C14.6284559,4.64469838 20.3097732,5.55248051 26.0273483,5.55248051 L26.0273483,5.55248051 C31.7628825,5.55248051 37.4801128,6.19947601 43.0706,7.48119541 L49.1220162,8.86859105 L49.1220162,25.8490431 L43.9173742,24.6325429 C37.9485394,23.2374251 31.8391382,22.5329326 25.7094284,22.5329326 L20.007206,22.5329326" id="Rectangle-12" stroke-width="1.2" stroke-linejoin="round" transform="translate(28.203333, 14.042707) scale(1, -1) translate(-28.203333, -14.042707) "></path>
                <path d="M58.2647999,1.44087224 L53.8203555,1.44087224 L58.2647999,1.44087224 Z" id="Path-15-Copy-8" stroke-width="1.2" stroke-linejoin="round" transform="translate(56.042578, 1.885317) rotate(-15.000000) translate(-56.042578, -1.885317) "></path>
                <path d="M63.1196299,4.24098047 L58.6751855,4.24098047 L63.1196299,4.24098047 Z" id="Path-15-Copy-7" stroke-width="1.2" stroke-linejoin="round" transform="translate(60.897408, 4.685425) rotate(-15.000000) translate(-60.897408, -4.685425) "></path>
                <path d="M12.9381469,31.8022877 L6.8555009,33.7831065" id="Path-15-Copy-5" stroke-width="1.2" stroke-linejoin="round"></path>
                <path d="M6.2421004,29.2486656 L0.159454408,31.2294844" id="Path-15-Copy-6" stroke-width="1.2" stroke-linejoin="round"></path>
                <path d="M11.3761072,9.40046674 L11.3761072,5.17923051 L13.2870194,5.80589517 C18.7199136,7.58755891 24.4012309,8.49534105 30.118806,8.49534105 L30.118806,8.49534105 C35.8543402,8.49534105 41.5715705,9.14233655 47.1620577,10.4240559 L53.2134739,11.8114516 L53.2134739,28.7919036 L49.2175835,27.8579294" id="Rectangle-12-Copy-4" stroke-width="1.2" stroke-linejoin="round" stroke-dasharray="2,4" transform="translate(32.294791, 16.985567) scale(1, -1) translate(-32.294791, -16.985567) "></path>
                <path d="M16.2012731,12.5339661 L16.2012731,8.31272989 L18.1121853,8.93939455 C23.5450795,10.7210583 29.2263968,11.6288404 34.9439719,11.6288404 L34.9439719,11.6288404 C40.6795061,11.6288404 46.3967364,12.2758359 51.9872236,13.5575553 L58.0386398,14.944951 L58.0386398,31.925403 L54.0427494,30.9914288" id="Rectangle-12-Copy-5" stroke-width="1.2" stroke-linejoin="round" stroke-dasharray="2,4" transform="translate(37.119956, 20.119066) scale(1, -1) translate(-37.119956, -20.119066) "></path>
                <path d="M28.2257683,18.3905549 C30.6805215,18.3905549 32.6704922,16.3875298 32.6704922,13.916673 C32.6704922,11.4458163 30.6805215,9.44279115 28.2257683,9.44279115 C25.7710151,9.44279115 23.7810444,11.4458163 23.7810444,13.916673 C23.7810444,15.0938185 24.2327046,16.1647811 24.9711058,16.9635596" id="Oval-Copy-3" stroke-width="1.5" transform="translate(28.225768, 13.916673) rotate(-143.000000) translate(-28.225768, -13.916673) "></path>
                <path d="M7.38544601,12.4599691 L10.0067289,8.80378867" id="Path-14" stroke-width="1.2" stroke-linejoin="round"></path>
                <path d="M45.2169035,19.772084 L48.9035056,16.2360563" id="Path-14-Copy-2" stroke-width="1.2" stroke-linejoin="round"></path>
                <path d="M7.44500158,22.8790474 L9.58428259,24.8839351" id="Path-14-Copy" stroke-width="1.2" stroke-linejoin="round"></path>
                <path d="M46.8088209,4.03135644 L48.9481019,6.03624412" id="Path-14-Copy-3" stroke-width="1.2" stroke-linejoin="round"></path>
            </g>
        </g>
    </g>
</svg>