<?xml version="1.0" encoding="UTF-8"?>
<svg width="440px" height="99px" viewBox="0 0 440 99" version="1.1" xmlns="http://www.w3.org/2000/svg" xmlns:xlink="http://www.w3.org/1999/xlink">
    <!-- Generator: Sketch 49.2 (51160) - http://www.bohemiancoding.com/sketch -->
    <title>Group 11</title>
    <desc>Created with Sketch.</desc>
    <defs></defs>
    <g id="Economic-Model" stroke="none" stroke-width="1" fill="none" fill-rule="evenodd" stroke-linecap="round" stroke-linejoin="round">
        <g id="Group-11" transform="translate(45.000000, 33.000000)" stroke="#000000" stroke-width="2">
            <path d="M7.43907314,6.71641561 L0.763256697,29.1871885" id="Path-7-Copy-13"></path>
            <polyline id="Path-7-Copy-20" points="9.39273483 1.39991396 16.487976 26.4010399 26.500042 1.39991396 32.3546646 26.4010399"></polyline>
            <g id="Group-10" transform="translate(64.000000, 10.000000)">
                <path d="M0.91419073,1.04512014 L9.92709907,11.0772003" id="Path-7-Copy-21"></path>
                <path d="M8.97887755,0.475300349 L1.40788673,10.9123886" id="Path-7-Copy-22"></path>
            </g>
            <g id="Group-10-Copy" transform="translate(285.000000, 11.000000)">
                <path d="M0.91419073,1.04512014 L9.92709907,11.0772003" id="Path-7-Copy-21"></path>
                <path d="M8.97887755,0.475300349 L1.40788673,10.9123886" id="Path-7-Copy-22"></path>
            </g>
            <polyline id="Path-7-Copy-23" points="101.570991 2 113.132327 29.8233059 127.303915 0.674547786"></polyline>
            <path d="M166.742687,12.5365551 L185.045653,9.99712473" id="Path-7-Copy-24"></path>
            <path d="M166.742687,23.5365551 L185.045653,20.9971247" id="Path-7-Copy-25"></path>
            <path d="M230.388084,30.1736231 L230.388084,3.089076" id="Path-7-Copy-26"></path>
            <path d="M338.398179,31.6958811 L351,3" id="Path-7-Copy-28"></path>
            <path d="M342.172263,17.6185629 L329.882206,3.69399717" id="Path-7-Copy-29"></path>
            <path d="M234.350216,18.8134415 L245.77437,12.5108781 C248.182864,11.1821414 249.678442,8.64897227 249.678442,5.89826539 L249.678442,5.89826539 C249.678442,3.63733913 247.845599,1.80449626 245.584673,1.80449626 C245.468247,1.80449626 245.351874,1.80946295 245.235872,1.81938279 L230.388084,3.089076" id="Path-7-Copy-27"></path>
        </g>
    </g>
</svg>