<?xml version="1.0" encoding="UTF-8"?>
<svg width="280px" height="186px" viewBox="0 0 280 186" version="1.1" xmlns="http://www.w3.org/2000/svg" xmlns:xlink="http://www.w3.org/1999/xlink">
    <!-- Generator: Sketch 49.2 (51160) - http://www.bohemiancoding.com/sketch -->
    <title>Group 13</title>
    <desc>Created with Sketch.</desc>
    <defs></defs>
    <g id="Login" stroke="none" stroke-width="1" fill="none" fill-rule="evenodd">
        <g transform="translate(-590.000000, -860.000000)" id="Group-13">
            <g transform="translate(570.000000, 853.000000)">
                <g id="Group-8" transform="translate(46.214469, 47.538904) rotate(-23.000000) translate(-46.214469, -47.538904) translate(11.714469, 10.538904)" stroke="#000000" stroke-linecap="round" stroke-width="1.2">
                    <path d="M60.4663176,20.0433644 L63.1387662,13.362243" id="Path-3-Copy-7"></path>
                    <path d="M48.4402989,16.0346915 L48.4402989,8.01734577" id="Path-3-Copy-15"></path>
                    <path d="M48.4402989,4.00867289 L48.4402989,0" id="Path-3-Copy-20"></path>
                    <path d="M31.0693831,21.3795887 L27.0607102,16.0346915" id="Path-3-Copy-16"></path>
                    <path d="M25.3986587,13.6747485 L23.7366072,11.4571432" id="Path-3-Copy-22"></path>
                    <path d="M23.0520373,34.7418317 L9.68979436,30.7331588" id="Path-3-Copy-17"></path>
                    <path d="M23.0520373,50.7765232 L16.3709158,52.1127475" id="Path-3-Copy-18"></path>
                    <path d="M28.3969345,64.1387662 L23.0520373,69.4836633" id="Path-3-Copy-21"></path>
                    <path d="M20.9172925,71.5303432 L18.4601532,73.8116646" id="Path-3-Copy-23"></path>
                    <path d="M12.7860729,52.8442992 L0.031847813,55.4873169" id="Path-3-Copy-19"></path>
                    <path d="M57.0062638,65.4749905 C63.858158,61.553265 68.4836633,54.1071175 68.4836633,45.5666655 C68.4836633,32.9464882 58.3835003,22.715813 45.9243179,22.715813 C37.0783311,22.715813 29.4215173,27.8730581 25.7244859,35.3811374" id="Oval-Copy-3" transform="translate(47.104075, 44.095402) rotate(-90.000000) translate(-47.104075, -44.095402) "></path>
                </g>
                <g id="Group-8-Copy" transform="translate(176.962916, 100.133936) rotate(62.000000) translate(-176.962916, -100.133936) translate(162.462916, 92.633936)" stroke="#000000" stroke-linecap="round">
                    <path d="M26.7623186,7.51744678 L28.4313115,3.34496452" id="Path-3-Copy-7"></path>
                    <path d="M19.2518505,5.01395743 L19.2518505,0.00697871267" id="Path-3-Copy-15"></path>
                    <path d="M11.4640473,9.14718977 L8.96055799,5.80920396" id="Path-3-Copy-16"></path>
                    <path d="M7.17315749,3.13605539 L6.13517601,1.75112037" id="Path-3-Copy-22"></path>
                    <path d="M5.89725755,14.5633375 L0.501346822,11.6678885" id="Path-3-Copy-17"></path>
                </g>
                <g id="Group-8-Copy-2" transform="translate(136.172803, 128.478753) scale(-1, -1) rotate(62.000000) translate(-136.172803, -128.478753) translate(125.172803, 123.978753)" stroke="#000000" stroke-linecap="round">
                    <path d="M19.7623186,7.51744678 L21.4313115,3.34496452" id="Path-3-Copy-7"></path>
                    <path d="M12.2518505,5.01395743 L12.2518505,0.00697871267" id="Path-3-Copy-15"></path>
                    <path d="M5.8164665,8.73371374 L3.31297714,5.39572793" id="Path-3-Copy-16"></path>
                    <path d="M1.52557665,2.72257936 L0.487595161,1.33764434" id="Path-3-Copy-22"></path>
                </g>
                <g id="Group-10-Copy" transform="translate(230.656334, 93.980769) scale(-1, 1) translate(-230.656334, -93.980769) translate(212.656334, 84.980769)" stroke="#000000" stroke-linecap="round" stroke-linejoin="round" stroke-width="1.2">
                    <path d="M7.50434654,6 C7.50145769,5.92498435 7.5,5.84960171 7.5,5.77387861 C7.5,2.5850535 10.0850535,-1.00282107e-14 13.2738786,-1.06139884e-14 L22.7261214,-1.11927714e-14 C25.9149465,-1.1778549e-14 28.5,2.5850535 28.5,5.77387861 C28.5,8.96270371 25.9149465,11.5477572 22.7261214,11.5477572 L22.4832124,11.5477572 C22.4943377,11.6970495 22.5,11.8478635 22.5,12 C22.5,15.3137085 19.8137085,18 16.5,18 L6.5,18 C3.1862915,18 0.5,15.3137085 0.5,12 C0.5,8.6862915 3.1862915,6 6.5,6 L7.50434654,6 Z" id="Combined-Shape"></path>
                    <path d="M35.6077987,5.8544248 L35.6077987,11.1455752 C35.6077987,13.9069989 33.3692225,16.1455752 30.6077987,16.1455752 L30.589329,16.1455752 C27.8381058,16.1455752 25.6077987,13.9152681 25.6077987,11.1640449" id="Rectangle-4-Copy-31" transform="translate(30.607799, 11.000000) scale(-1, 1) rotate(90.000000) translate(-30.607799, -11.000000) "></path>
                </g>
                <g id="Group-10-Copy-2" transform="translate(218.156334, 95.980769) scale(-1, 1) translate(-218.156334, -95.980769) translate(212.656334, 90.980769)" stroke="#000000" stroke-linecap="round" stroke-linejoin="round" stroke-width="1.2">
                    <path d="M10.6077987,-0.145575201 L10.6077987,5.1455752 C10.6077987,7.90699895 8.36922249,10.1455752 5.60779874,10.1455752 L5.58932905,10.1455752 C2.83810583,10.1455752 0.607798739,7.91526811 0.607798739,5.16404489" id="Rectangle-4-Copy-31" transform="translate(5.607799, 5.000000) scale(-1, 1) rotate(90.000000) translate(-5.607799, -5.000000) "></path>
                </g>
                <g id="Group" transform="translate(253.656334, 18.980769)" stroke="#000000" stroke-linecap="round" stroke-linejoin="round" stroke-width="1.2">
                    <path d="M0,6.39863711 C5.07720686,5.12317023 9.33772391,5.38366229 12.7815511,7.18011329 C13.8959462,2.91315337 17.1300344,0.519782275 22.4838158,0" id="Path-3-Copy-7"></path>
                    <path d="M18,14.6239969 C21.6130571,13.7163453 24.6449389,13.9017175 27.0956455,15.1801133 C27.8886746,12.1436466 30.1901261,10.4404687 34,10.0705797" id="Path-3-Copy-12"></path>
                </g>
                <path d="M206.656334,155.980769 L270.18355,155.980769" id="Path-3-Copy-24" stroke="#000000" stroke-width="1.2" stroke-linecap="round"></path>
                <path d="M107.13412,168.980769 L299.081453,168.980769" id="Path-3-Copy-25" stroke="#000000" stroke-width="1.2" stroke-linecap="round"></path>
                <path d="M25.6563343,168.980769 L61.411413,168.980769" id="Path-3-Copy-26" stroke="#000000" stroke-width="1.2" stroke-linecap="round"></path>
                <path d="M188.081126,160.980769 L196.656334,160.980769 C198.313189,160.980769 199.656334,159.637623 199.656334,157.980769 L199.656334,53.9807687 C199.656334,52.3239144 198.313189,50.9807687 196.656334,50.9807687 L118.656334,50.9807687 C116.99948,50.9807687 115.656334,52.3239144 115.656334,53.9807687 L115.656334,157.980769 C115.656334,159.637623 116.99948,160.980769 118.656334,160.980769 L177.923836,160.980769" id="Rectangle-4-Copy-18" stroke="#000000" stroke-width="1.2" stroke-linecap="round" stroke-linejoin="round"></path>
                <path d="M79.6563343,167.033845 L79.6563343,44.9276923 C79.6563343,43.270838 80.9994801,41.9276923 82.6563343,41.9276923 C82.9276963,41.9276923 83.1978038,41.9645102 83.4592659,42.0371385 L113.459266,50.3704719 C114.757725,50.731155 115.656334,51.9134022 115.656334,53.2610256 L115.656334,158.700512 C115.656334,160.048135 114.757725,161.230382 113.459266,161.591065 L83.4592659,169.924399 C81.8628572,170.367846 80.2092275,169.433185 79.7657806,167.836777 C79.6931522,167.575314 79.6563343,167.305207 79.6563343,167.033845 Z" id="Rectangle-4-Copy-20" stroke="#000000" stroke-width="1.2" stroke-linecap="round" stroke-linejoin="round"></path>
                <path d="M76.7389209,41.9807687 L72.6563343,41.9807687 C70.9994801,41.9807687 69.6563343,43.3239144 69.6563343,44.9807687 L69.6563343,167.575311 C69.6563343,169.232166 70.9994801,170.575311 72.6563343,170.575311 L77.3318146,170.575311" id="Rectangle-4-Copy-21" stroke="#000000" stroke-width="1.2" stroke-linecap="round" stroke-linejoin="round"></path>
                <g id="Group-5" transform="translate(72.656334, 95.980769)" stroke="#000000">
                    <circle id="Oval" cx="2" cy="2" r="2"></circle>
                    <circle id="Oval-Copy-7" cx="2" cy="10" r="2"></circle>
                    <circle id="Oval-Copy-8" cx="2" cy="18" r="2"></circle>
                </g>
                <path d="M180.837128,147.980769 L186.656334,147.980769 C188.313189,147.980769 189.656334,146.637623 189.656334,144.980769 L189.656334,66.9807687 C189.656334,65.3239144 188.313189,63.9807687 186.656334,63.9807687 L128.656334,63.9807687 C126.99948,63.9807687 125.656334,65.3239144 125.656334,66.9807687 L125.656334,144.980769 C125.656334,146.637623 126.99948,147.980769 128.656334,147.980769 L173.09824,147.980769" id="Rectangle-4-Copy-19" stroke="#000000" stroke-width="1.2" stroke-linecap="round" stroke-linejoin="round" transform="translate(157.656334, 105.980769) scale(-1, 1) translate(-157.656334, -105.980769) "></path>
                <g id="Group-3" transform="translate(139.656334, 102.980769)" stroke="#000000" stroke-linecap="round">
                    <path d="M14.1769966,23 L33,23 C34.6568542,23 36,21.6568542 36,20 L36,3 C36,1.34314575 34.6568542,-3.04359188e-16 33,0 L4,0 C2.34314575,3.04359188e-16 1,1.34314575 1,3 L1,20 C1,21.6568542 2.34314575,23 4,23 L7.94479219,23" id="Rectangle-4-Copy-22" stroke-width="1.2" stroke-linejoin="round" transform="translate(18.500000, 11.500000) scale(-1, 1) translate(-18.500000, -11.500000) "></path>
                    <path d="M34.6968174,1.0980642 L20.2725285,12.5141366 C19.2240504,13.3439524 17.7529635,13.3797038 16.6654133,12.6017995 L2.30710549,2.33156963" id="Path-3-Copy-16" stroke-width="1.2"></path>
                    <path d="" id="Path-3-Copy-27" stroke-width="2"></path>
                    <path d="" id="Path-3-Copy-28" stroke-width="2" transform="translate(6.203857, 12.875146) scale(-1, 1) translate(-6.203857, -12.875146) "></path>
                </g>
                <path d="M115.656334,72.9807687 L119.656334,72.9807687 C120.760904,72.9807687 121.656334,73.8761992 121.656334,74.9807687 L121.656334,82.9807687 C121.656334,84.0853382 120.760904,84.9807687 119.656334,84.9807687 L115.656334,84.9807687" id="Rectangle-4" stroke="#000000" stroke-linecap="round" stroke-linejoin="round"></path>
                <circle id="Oval" fill="#000000" cx="118.656334" cy="75.9807687" r="1"></circle>
                <circle id="Oval-Copy" fill="#000000" cx="118.656334" cy="81.9807687" r="1"></circle>
                <g id="Group-4" transform="translate(112.156334, 79.480769) scale(-1, 1) translate(-112.156334, -79.480769) translate(109.656334, 71.980769)">
                    <path d="M0,1.11386216 L2.91239911,-0.126124953 C3.67461713,-0.450647965 4.55559481,-0.0958260508 4.88011782,0.666391973 C4.95922448,0.852192429 5,1.05205309 5,1.25399287 L5,13.4071056 C5,14.2355327 4.32842712,14.9071056 3.5,14.9071056 C3.23494863,14.9071056 2.97462994,14.8368743 2.74554502,14.7035614 L1.67313893,14.0794892" id="Rectangle-4-Copy" stroke="#000000" stroke-linecap="round" stroke-linejoin="round"></path>
                    <ellipse id="Oval-Copy-6" fill="#000000" cx="2.5" cy="4" rx="1" ry="1"></ellipse>
                    <ellipse id="Oval-Copy-5" fill="#000000" cx="2.5" cy="11" rx="1" ry="1"></ellipse>
                </g>
                <g id="Group-4-Copy" transform="translate(112.156334, 132.480769) scale(-1, 1) translate(-112.156334, -132.480769) translate(109.656334, 124.980769)">
                    <path d="M0,1.11386216 L2.91239911,-0.126124953 C3.67461713,-0.450647965 4.55559481,-0.0958260508 4.88011782,0.666391973 C4.95922448,0.852192429 5,1.05205309 5,1.25399287 L5,13.7465734 C5,14.5750005 4.32842712,15.2465734 3.5,15.2465734 C3.29806022,15.2465734 3.09819956,15.2057979 2.91239911,15.1266912 L0,13.8867041" id="Rectangle-4-Copy" stroke="#000000" stroke-linecap="round" stroke-linejoin="round"></path>
                    <ellipse id="Oval-Copy-6" fill="#000000" cx="2.5" cy="4" rx="1" ry="1"></ellipse>
                    <ellipse id="Oval-Copy-5" fill="#000000" cx="2.5" cy="11" rx="1" ry="1"></ellipse>
                </g>
                <circle id="Oval-Copy-4" fill="#000000" cx="118.656334" cy="128.980769" r="1"></circle>
                <circle id="Oval-Copy-2" fill="#000000" cx="118.656334" cy="134.980769" r="1"></circle>
                <path d="M115.656334,125.980769 L119.656334,125.980769 C120.760904,125.980769 121.656334,126.876199 121.656334,127.980769 L121.656334,135.980769 C121.656334,137.085338 120.760904,137.980769 119.656334,137.980769 L118.656334,137.980769" id="Rectangle-4-Copy-7" stroke="#000000" stroke-linecap="round" stroke-linejoin="round"></path>
                <polygon id="Star" stroke="#000000" stroke-linecap="round" stroke-linejoin="round" transform="translate(139.869386, 92.193820) rotate(-10.000000) translate(-139.869386, -92.193820) " points="139.869386 94.4438203 137.224352 95.8343968 137.729509 92.8891086 135.589632 90.8032439 138.546869 90.3735321 139.869386 87.6938203 141.191903 90.3735321 144.14914 90.8032439 142.009263 92.8891086 142.51442 95.8343968"></polygon>
                <polygon id="Star-Copy-2" stroke="#000000" stroke-linecap="round" stroke-linejoin="round" transform="translate(204.951034, 40.178058) rotate(30.000000) translate(-204.951034, -40.178058) " points="204.951034 43.5826775 201.590473 45.3494287 202.232283 41.6073895 199.513533 38.9572627 203.270754 38.4113066 204.951034 35.0066869 206.631314 38.4113066 210.388535 38.9572627 207.669784 41.6073895 208.311594 45.3494287"></polygon>
                <polygon id="Star-Copy-5" stroke="#000000" stroke-linecap="round" stroke-linejoin="round" transform="translate(206.167823, 186.402033) rotate(30.000000) translate(-206.167823, -186.402033) " points="206.167823 188.305296 204.28919 189.292952 204.647977 187.201063 203.128131 185.71958 205.228507 185.414377 206.167823 183.511114 207.10714 185.414377 209.207516 185.71958 207.687669 187.201063 208.046456 189.292952"></polygon>
                <polygon id="Star-Copy-6" stroke="#000000" stroke-linecap="round" stroke-linejoin="round" transform="translate(248.734244, 130.004224) rotate(30.000000) translate(-248.734244, -130.004224) " points="248.734244 131.907487 246.855611 132.895143 247.214398 130.803254 245.694552 129.321771 247.794928 129.016568 248.734244 127.113305 249.673561 129.016568 251.773936 129.321771 250.25409 130.803254 250.612877 132.895143"></polygon>
                <polyline id="Star-Copy" stroke="#000000" stroke-linecap="round" stroke-linejoin="round" transform="translate(177.031554, 136.231249) rotate(20.000000) translate(-177.031554, -136.231249) " points="177.031554 138.298776 174.990783 139.371673 175.380535 137.099241 173.729517 135.489896 176.011168 135.158352 177.031554 133.090825 178.051939 135.158352 180.333591 135.489896 178.682572 137.099241 179.072325 139.371673"></polyline>
                <polyline id="Star-Copy-3" stroke="#000000" stroke-linecap="round" stroke-linejoin="round" transform="translate(56.833322, 187.061165) rotate(120.000000) translate(-56.833322, -187.061165) " points="56.8333222 190.344148 53.5928237 192.047779 54.2117038 188.439431 51.5900854 185.883985 55.213073 185.357534 56.8333222 182.07455 58.4535715 185.357534 62.0765591 185.883985 59.4549407 188.439431 60.0738208 192.047779"></polyline>
                <polyline id="Star-Copy-4" stroke="#000000" stroke-linecap="round" stroke-linejoin="round" transform="translate(107.596488, 20.014852) rotate(120.000000) translate(-107.596488, -20.014852) " points="107.596488 23.2978358 104.355989 25.0014667 104.974869 21.3931186 102.353251 18.8376722 105.976238 18.3112213 107.596488 15.0282377 109.216737 18.3112213 112.839724 18.8376722 110.218106 21.3931186 110.836986 25.0014667"></polyline>
            </g>
        </g>
    </g>
</svg>