<?xml version="1.0" standalone="no"?>
<!DOCTYPE svg PUBLIC "-//W3C//DTD SVG 1.1//EN" "http://www.w3.org/Graphics/SVG/1.1/DTD/svg11.dtd" >
<svg xmlns="http://www.w3.org/2000/svg" xmlns:xlink="http://www.w3.org/1999/xlink" version="1.1">
<metadata></metadata>
<defs>
<font id="telugu_mnbold" horiz-adv-x="1241" >
<font-face units-per-em="2048" ascent="1638" descent="-410" />
<missing-glyph horiz-adv-x="540" />
<glyph horiz-adv-x="0" />
<glyph unicode="&#xd;" horiz-adv-x="682" />
<glyph unicode=" "  horiz-adv-x="540" />
<glyph unicode="&#x09;" horiz-adv-x="540" />
<glyph unicode="&#xa0;" horiz-adv-x="540" />
<glyph unicode="!" horiz-adv-x="652" d="M276 354q-14 128 -28 219t-26.5 157t-23 113.5t-18 89.5t-12 85.5t-4.5 101.5q0 52 14 94t37 70.5t52 44t59 15.5t59.5 -15.5t52 -44t36.5 -70.5t14 -94q0 -58 -4.5 -101.5t-12 -85.5t-18 -89.5t-22.5 -113.5t-26 -157t-28 -219h-101zM191 115q0 -29 10.5 -53.5t29 -43 t43 -29t52.5 -10.5t53 10.5t44 29t29.5 43t10.5 53.5q0 28 -10.5 53t-29.5 43.5t-44 29t-53 10.5t-52.5 -10.5t-43 -29t-29 -43.5t-10.5 -53z" />
<glyph unicode="&#x22;" horiz-adv-x="862" d="M224 752q-6 58 -25 112t-39.5 108t-36 108.5t-15.5 113.5q0 28 11.5 55t32 48t47.5 34t58 13q30 0 57 -13t47 -34t31.5 -48t11.5 -55q0 -59 -15.5 -113.5t-35.5 -108.5t-38.5 -108t-24.5 -112h-66zM573 752q-6 58 -25 112t-39 108t-35.5 108.5t-15.5 113.5q0 28 11.5 55 t31.5 48t47 34t57 13q31 0 58 -13t47.5 -34t32 -48t11.5 -55q0 -59 -15.5 -113.5t-36 -108.5t-39.5 -108t-25 -112h-65z" />
<glyph unicode="#" horiz-adv-x="1058" d="M885 872h162v-120h-186l-56 -265h242v-122h-268l-83 -386h-197l83 386h-216l-84 -386h-195l85 386h-161v122h185l55 265h-240v120h267l71 320h193l-68 -320h217l70 320h191zM392 487h217l58 265h-218z" />
<glyph unicode="$" horiz-adv-x="1129" d="M526 -21h-48q-47 3 -96 14.5t-96.5 30t-93 44t-84.5 57.5v238h167q8 -60 31 -106t56.5 -78.5t75.5 -51.5t88 -24v455q-11 7 -22.5 15t-25.5 15q-66 43 -128 86.5t-110 93t-77 108.5t-29 134q0 61 25.5 116t71.5 98.5t109 74t138 41.5h48v232h113v-232h12q49 -5 91 -15.5 t81 -24t76.5 -29t76.5 -31.5v-313h-134q-8 64 -27.5 112.5t-47 83t-60.5 56.5t-68 32v-427l24 -15q61 -42 124.5 -88t115.5 -98t85 -111.5t33 -126.5q0 -68 -27 -129t-76.5 -109t-119 -81.5t-153.5 -46.5h-6v-198h-113v198zM397 1066q0 -34 12.5 -63.5t31 -55t41.5 -46 t44 -36.5v348q-38 -7 -63 -23.5t-39.5 -37t-20.5 -43.5t-6 -43zM759 284q0 31 -10 58.5t-26.5 52.5t-38 46.5t-45.5 40.5v-364q27 12 49 31t38 41t24.5 46.5t8.5 47.5z" />
<glyph unicode="%" horiz-adv-x="1795" d="M471 -21h-208l1045 1365h210zM70 977q0 76 28 143t77 116.5t114.5 78.5t139.5 29t139 -29t113.5 -78.5t76.5 -116.5t28 -143t-28 -142.5t-76.5 -116t-113.5 -78.5t-139 -29t-139.5 29t-114.5 78.5t-77 116t-28 142.5zM285 977q0 -53 11 -99.5t30.5 -81.5t46 -55t56.5 -20 t56 20t45.5 55t30.5 81.5t11 99.5t-11 99.5t-30.5 81t-45.5 54.5t-56 20t-56.5 -20t-46 -54.5t-30.5 -81t-11 -99.5zM1010 346q0 76 28 142.5t76.5 116.5t113.5 79t139 29t139 -29t114 -79t77 -116.5t28 -142.5t-28 -143t-77 -116.5t-114 -78.5t-139 -29t-139 29 t-113.5 78.5t-76.5 116.5t-28 143zM1223 346q0 -53 11.5 -100t31 -81.5t45.5 -54.5t56 -20t56 20t45.5 54.5t31 81.5t11.5 100t-11.5 99.5t-31 81.5t-45.5 55t-56 20t-56 -20t-45.5 -55t-31 -81.5t-11.5 -99.5z" />
<glyph unicode="&#x26;" horiz-adv-x="1593" d="M1213 -21q-75 0 -154 30t-157 82q-83 -53 -182.5 -82.5t-225.5 -29.5q-101 0 -180 23t-133 63.5t-82.5 96t-28.5 120.5q0 72 29 131t77.5 109.5t111.5 93.5t131 82q-30 75 -47 148.5t-17 140.5t28.5 131.5t80 114.5t124.5 80.5t163 30.5q61 0 122.5 -15.5t110.5 -49 t79.5 -86t30.5 -126.5q0 -66 -32 -121.5t-84 -103t-119 -89.5t-136 -82q40 -88 93.5 -173.5t115.5 -157.5q45 45 84.5 94.5t73.5 98t60.5 94t44.5 84.5l151 -101q-69 -109 -138.5 -208.5t-150.5 -182.5q51 -38 101 -60t99 -22q43 0 74.5 13t56 37t43 56.5t35.5 71.5l119 -53 q-46 -149 -138 -216t-234 -67zM550 137q54 0 107 18t105 49q-75 71 -141.5 155.5t-120.5 175.5q-64 -48 -104.5 -100.5t-40.5 -115.5q0 -36 11 -68.5t34.5 -58t60.5 -40.5t89 -15zM633 1012q0 -38 7 -82t21 -92q43 27 80 56t64 60.5t42.5 66.5t15.5 74q0 35 -7.5 58.5 t-21 38t-31.5 20.5t-40 6q-27 0 -51 -15.5t-41.5 -43t-27.5 -65t-10 -82.5z" />
<glyph unicode="'" horiz-adv-x="437" d="M186 752q-7 58 -26 112t-39 108t-35.5 108.5t-15.5 113.5q0 28 11.5 55t31.5 48t47 34t58 13t58 -13t47.5 -34t32 -48t11.5 -55q0 -59 -15.5 -113.5t-36 -108.5t-39.5 -108t-25 -112h-65z" />
<glyph unicode="(" horiz-adv-x="805" d="M791 -415q-144 52 -264 144.5t-205.5 210.5t-133 254.5t-47.5 275.5q0 92 21.5 184.5t62 180.5t98 169t129.5 150t157.5 123t181.5 89v-86q-103 -68 -171.5 -160t-109 -197.5t-57.5 -221t-17 -231.5q0 -115 14 -228.5t52.5 -217.5t108 -194t180.5 -159v-86z" />
<glyph unicode=")" horiz-adv-x="803" d="M13 -329q111 69 180.5 159t108.5 194t53 217.5t14 228.5q0 116 -17 231.5t-57.5 221t-109.5 197.5t-172 160v86q95 -35 180.5 -89t157.5 -123t129.5 -150t98 -169t62 -180.5t21.5 -184.5q0 -139 -47 -275.5t-132.5 -254.5t-205 -210.5t-264.5 -144.5v86z" />
<glyph unicode="*" horiz-adv-x="855" d="M528 943q22 -6 51.5 -11.5t60.5 -12.5t61 -17.5t54 -26.5t38.5 -39t14.5 -56q0 -23 -9.5 -39t-24.5 -26.5t-34.5 -15.5t-39.5 -5q-28 0 -61 20t-65.5 48.5t-61 60t-47.5 53.5q7 -23 19 -53t23.5 -61.5t20 -61t8.5 -50.5q0 -48 -28.5 -78.5t-79.5 -30.5t-79 30.5t-28 78.5 q0 21 8 50.5t19.5 61t23 61.5t18.5 53q-19 -22 -47 -53.5t-60.5 -60t-65.5 -48.5t-61 -20q-20 0 -39.5 5t-35 15.5t-25 26.5t-9.5 39q0 49 31.5 77.5t76 44.5t92.5 24t81 17q-33 8 -81 16t-92.5 24t-76 44.5t-31.5 77.5q0 22 9.5 38.5t25 27.5t35 16t39.5 5q28 0 61 -20 t65.5 -48.5t60.5 -60t47 -53.5q-7 22 -18.5 52.5t-23 62t-19.5 61t-8 50.5q0 47 28 77.5t79 30.5t79.5 -30.5t28.5 -77.5q0 -21 -8.5 -50.5t-20 -61t-23.5 -62t-19 -52.5q19 22 47.5 53.5t61 60t65.5 48.5t61 20q20 0 39.5 -5t34.5 -16t24.5 -27.5t9.5 -38.5 q0 -33 -14.5 -56t-38.5 -39.5t-54 -26.5t-61 -17t-60.5 -12.5t-51.5 -10.5z" />
<glyph unicode="+" horiz-adv-x="1061" d="M432 1191h183v-375h377v-167h-377v-377h-183v377h-375v167h375v375z" />
<glyph unicode="," horiz-adv-x="541" d="M85 -224q43 12 81 32.5t66 47t44.5 57t16.5 61.5q0 26 -3 26q-8 0 -17 -4.5t-19.5 -10.5t-23 -10.5t-28.5 -4.5q-24 0 -45 10t-37 28t-25.5 42.5t-9.5 52.5q0 30 12.5 56t33.5 44.5t49.5 29t60.5 10.5q40 0 75 -17.5t61 -47.5t41 -70t15 -86q0 -70 -28 -129.5 t-75.5 -103.5t-111 -71t-133.5 -31v89z" />
<glyph unicode="-" horiz-adv-x="657" d="M610 560v-159h-563v159h563z" />
<glyph unicode="." horiz-adv-x="489" d="M108 115q0 28 10.5 53t29 43.5t43 29t52.5 10.5q29 0 54 -10.5t44 -29t29.5 -43.5t10.5 -53q0 -29 -10.5 -53.5t-29.5 -43t-44 -29t-54 -10.5q-28 0 -52.5 10.5t-43 29t-29 43t-10.5 53.5z" />
<glyph unicode="/" horiz-adv-x="576" d="M409 1344h189l-438 -1374h-190z" />
<glyph unicode="0" d="M620 -30q-117 0 -213 51.5t-164.5 144t-106 220t-37.5 280.5q0 139 37.5 262.5t106 215.5t164.5 146t213 54q78 0 147 -24.5t127 -69t104 -106.5t77.5 -137.5t48.5 -161.5t17 -179q0 -153 -37.5 -280.5t-105.5 -220t-164.5 -144t-213.5 -51.5zM620 82q51 0 88.5 48 t62.5 128.5t37 186t12 221.5q0 115 -12 217.5t-37 180t-62.5 122.5t-88.5 45t-88.5 -45t-62.5 -122.5t-37 -180t-12 -217.5q0 -116 12 -221.5t37 -186t62.5 -128.5t88.5 -48z" />
<glyph unicode="1" d="M623 0v1010h-318v66q99 7 167 27.5t114.5 53t76.5 78t53 104.5h197v-1339h-290z" />
<glyph unicode="2" d="M117 0v62q142 134 245.5 236.5t175.5 180.5t116.5 136t69 104t33 84t8.5 76q0 51 -14 99t-41.5 85t-68.5 59.5t-95 22.5q-43 0 -85 -18t-76.5 -49t-58.5 -72.5t-33 -88.5h-144q6 89 46 167t103.5 135.5t144.5 91t170 33.5q111 0 195.5 -30.5t141 -81.5t85 -118t28.5 -141 q0 -71 -34 -148t-105 -169.5t-180.5 -205.5t-260.5 -255h653l-118 -195h-901z" />
<glyph unicode="3" d="M387 704q72 7 132 30.5t103 59.5t67 84.5t24 105.5q0 37 -12.5 69t-35.5 56t-54.5 37.5t-70.5 13.5q-28 0 -60.5 -14t-65.5 -38t-62.5 -56t-51.5 -69l-119 54q24 64 62.5 120t92.5 97.5t123 65.5t154 24q81 0 151.5 -22t123 -61.5t83 -93t30.5 -116.5q0 -27 -13.5 -61 t-37.5 -70t-57.5 -72t-73.5 -67q54 -24 100.5 -61t80 -82t53 -95.5t19.5 -100.5q0 -119 -48.5 -207.5t-133.5 -147t-199.5 -88t-247.5 -29.5q-65 0 -117 9.5t-88 26.5t-55 41t-19 53q0 28 15.5 46.5t39 29.5t51 15.5t51.5 4.5q50 0 87.5 -14t68.5 -31.5t57 -31.5t53 -14 q53 0 94 19.5t69 52.5t42.5 76t14.5 90q0 60 -25.5 111.5t-77 89.5t-130.5 59.5t-187 21.5v79z" />
<glyph unicode="4" d="M692 328h-603v140l683 876h209v-829h181v-187h-181v-328h-289v328zM345 515h347v451z" />
<glyph unicode="5" d="M974 1108h-411l-68 -125q111 -11 213.5 -52t181.5 -108.5t126 -158.5t47 -200q0 -102 -48 -191.5t-131.5 -157t-196 -106.5t-241.5 -39q-65 0 -118.5 12t-92 33t-59.5 48t-21 57q0 23 12 40.5t31.5 29t45.5 17.5t53 6q43 0 76 -14.5t63 -32t61 -32t71 -14.5 q51 0 95.5 22.5t78 61.5t53 91t19.5 111q0 83 -45.5 150t-129.5 114.5t-202.5 73t-263.5 25.5l299 545h606z" />
<glyph unicode="6" d="M1084 1267q-104 -9 -198.5 -48.5t-172.5 -101t-137.5 -141t-92.5 -170.5q46 20 99.5 31t122.5 11q86 0 163 -32t134.5 -86.5t91 -128.5t33.5 -158q0 -98 -39.5 -184t-108.5 -150.5t-161 -101.5t-197 -37q-111 0 -203.5 41.5t-159.5 113.5t-104 168t-37 206q0 114 31 221 t90 201t143.5 171.5t192 133.5t236 87t274.5 31v-77zM606 717q-28 0 -70 -16.5t-84 -41.5q-6 -42 -9.5 -85.5t-3.5 -81.5q0 -81 12.5 -155.5t38 -131t64.5 -90t93 -33.5q35 0 66.5 21.5t55 59t37.5 87.5t14 107q0 75 -16.5 140.5t-45.5 114t-68 77t-84 28.5z" />
<glyph unicode="7" d="M1080 1258l-471 -1288h-230l417 1138h-622l73 206h833v-56z" />
<glyph unicode="8" d="M595 1344q97 0 179 -23t141.5 -64.5t93 -98t33.5 -123.5q0 -37 -22 -80t-60 -85t-88.5 -79.5t-107.5 -64.5q79 -51 137.5 -105t96.5 -106.5t57 -100t19 -85.5q0 -74 -36.5 -139t-99 -114t-145.5 -77.5t-177 -28.5q-100 0 -184.5 25.5t-146 70.5t-96 106.5t-34.5 133.5 q0 58 19.5 107t55 92t85.5 82.5t111 78.5q-71 52 -119 93.5t-77.5 81.5t-42.5 82t-13 95q0 67 33 126.5t90.5 103.5t134 70t163.5 26zM436 1072q0 -41 18 -77t47 -69t66.5 -62.5t76.5 -56.5q62 55 98 119.5t36 151.5q0 32 -12 60t-35.5 48.5t-56.5 32.5t-75 12 q-36 0 -66 -13.5t-51.5 -35.5t-33.5 -51t-12 -59zM535 582q-29 -31 -50 -65t-34 -68.5t-19 -67t-6 -60.5q0 -50 15 -93.5t41.5 -75.5t61.5 -51t75 -19q41 0 77.5 12.5t63.5 34.5t43 50.5t16 61.5q0 27 -9.5 56.5t-26 57.5t-38 53t-45.5 43z" />
<glyph unicode="9" d="M150 47q97 9 189.5 49t172 101.5t141 140.5t96.5 165q-45 -19 -98 -30t-119 -11q-96 0 -173 35t-131 93t-82.5 133t-28.5 156q0 96 39.5 181t108 148t160.5 99.5t196 36.5q105 0 196.5 -41.5t160 -113.5t107.5 -168t39 -205q0 -117 -35 -225t-98 -202t-152 -171 t-197.5 -132.5t-233 -85.5t-258.5 -30v77zM631 595q18 0 38.5 4.5t41 13t40.5 19.5t36 23q7 40 11.5 89t4.5 97q0 79 -16.5 150t-45.5 124.5t-67.5 84.5t-83.5 31q-43 0 -74.5 -23.5t-51.5 -62t-30 -87.5t-10 -100q0 -79 12 -145.5t37 -115t64.5 -75.5t93.5 -27z" />
<glyph unicode=":" horiz-adv-x="462" d="M94 115q0 28 10.5 53t29 43.5t43.5 29t53 10.5t53 -10.5t44 -29t30 -43.5t11 -53q0 -29 -11 -53.5t-30 -43t-44 -29t-53 -10.5t-53 10.5t-43.5 29t-29 43t-10.5 53.5zM94 784q0 28 10.5 52.5t29 43t43.5 29t53 10.5t53 -10.5t44 -29t30 -43t11 -52.5q0 -29 -11 -53.5 t-30 -42.5t-44 -28.5t-53 -10.5t-53 10.5t-43.5 28.5t-29 42.5t-10.5 53.5z" />
<glyph unicode=";" horiz-adv-x="528" d="M110 784q0 28 10.5 52.5t29 43t43 29t52.5 10.5t53.5 -10.5t44 -29t29.5 -43t11 -52.5q0 -29 -11 -53.5t-29.5 -42.5t-44 -28.5t-53.5 -10.5t-52.5 10.5t-43 28.5t-29 42.5t-10.5 53.5zM85 -219q43 12 81 33t66 47t44.5 56.5t16.5 60.5q0 27 -3 27q-8 0 -17 -4.5 t-19.5 -10t-23 -10t-28.5 -4.5q-24 0 -45 10t-37 28t-25.5 42t-9.5 53q0 30 12.5 55.5t33.5 44.5t49.5 29.5t60.5 10.5q40 0 75 -17.5t61 -48t41 -71t15 -86.5q0 -69 -28 -128.5t-75.5 -103.5t-111 -71t-133.5 -31v89z" />
<glyph unicode="&#x3c;" horiz-adv-x="1245" d="M1151 1162v-151l-783 -341q95 -40 194.5 -82t199 -84.5t198 -84t191.5 -80.5v-148l-1057 440v73z" />
<glyph unicode="=" horiz-adv-x="1229" d="M85 921h1059v-126h-1059v126zM85 627h1059v-128h-1059v128z" />
<glyph unicode="&#x3e;" horiz-adv-x="1245" d="M1151 631l-1057 -440v148l784 331l-784 341v151l1057 -458v-73z" />
<glyph unicode="?" horiz-adv-x="1064" d="M441 319q-3 40 -3 76q0 87 15.5 146t38.5 103t50 79t50 74t38.5 88t15.5 121q0 55 -13 96t-36 68t-54.5 40t-68.5 13q-63 0 -102.5 -26.5t-39.5 -68.5q0 -22 10 -39t22.5 -33t22.5 -33t10 -39q0 -25 -10.5 -45.5t-29 -35.5t-44 -23t-54.5 -8q-35 0 -65 12t-52 34t-35 52 t-13 65q0 84 39.5 142.5t101.5 95.5t138 54t149 17q97 0 179 -22.5t142 -64.5t93.5 -102.5t33.5 -136.5q0 -70 -29.5 -121.5t-73.5 -95t-96 -85t-96 -90.5t-73.5 -112t-29.5 -150v-22.5t1 -22.5h-132zM358 115q0 28 12 53t32.5 43.5t48 29t58.5 10.5t58 -10.5t47 -29 t32 -43.5t12 -53q0 -29 -12 -53.5t-32 -43t-47 -29t-58 -10.5t-58.5 10.5t-48 29t-32.5 43t-12 53.5z" />
<glyph unicode="@" horiz-adv-x="1836" d="M1154 919h249q-59 -203 -106 -367q-20 -70 -39 -138.5t-33.5 -124t-23.5 -93t-9 -46.5q0 -19 5.5 -31t13 -18.5t15 -8.5t12.5 -2q28 0 64 22t73.5 61.5t73.5 93.5t64 118t45.5 135.5t17.5 146.5q0 82 -22 157t-60.5 139t-91 116t-113.5 88.5t-129 56.5t-136 20 q-171 0 -311 -63t-239.5 -171.5t-154 -253.5t-54.5 -310q0 -96 22.5 -187.5t64.5 -173t102.5 -150t137 -118t168 -77.5t195.5 -28q137 0 250.5 41t203.5 111t156.5 163.5t110.5 198.5h156q-63 -143 -147 -258t-193 -195.5t-245 -124t-302 -43.5q-198 0 -356 67t-268 183.5 t-169 272t-59 332.5q0 121 31 234t88.5 211t140 179t185.5 138.5t224 89.5t256 32q150 0 281.5 -49t229.5 -139t154.5 -216.5t56.5 -280.5q0 -91 -22.5 -177t-61.5 -161.5t-92 -138.5t-114 -108t-127.5 -70t-132.5 -25q-51 0 -94 6.5t-75.5 23.5t-51 46.5t-19.5 76.5 q-31 -33 -64.5 -61t-70 -48.5t-75.5 -32t-80 -11.5q-58 0 -100 19t-69 52t-40 76t-13 91q0 96 22 186t61 168t93 142.5t117.5 110.5t134.5 71.5t145 25.5q41 0 73.5 -15t56.5 -40zM732 137q41 0 81 28t76.5 74.5t67 106.5t53 124t35.5 126.5t13 114.5q0 22 -6.5 39t-16.5 29 t-22.5 18.5t-23.5 6.5q-44 0 -86.5 -22.5t-80.5 -62t-69.5 -93.5t-54.5 -115.5t-36 -129t-13 -134.5q0 -16 4.5 -35.5t14.5 -36t26 -27.5t38 -11z" />
<glyph unicode="A" horiz-adv-x="1424" d="M796 1368l627 -1368h-335l-168 366h-520l-175 -366h-224l653 1368h142zM462 491h403l-199 432z" />
<glyph unicode="B" horiz-adv-x="1437" d="M164 1339h575q115 0 211.5 -24.5t165.5 -69.5t107.5 -108.5t38.5 -140.5q0 -48 -10 -88t-34 -75.5t-63 -68.5t-97 -66q59 -18 108.5 -49.5t85.5 -73.5t56.5 -92.5t20.5 -107.5q0 -79 -36 -147.5t-102.5 -119t-160 -79.5t-207.5 -29h-659v1339zM493 759h217q52 0 93 16.5 t69 45.5t43 69t15 88q0 52 -18.5 95.5t-57 74.5t-98 48.5t-140.5 17.5h-123v-455zM493 137h181q79 0 137.5 17t96.5 48t56.5 72.5t18.5 91.5q0 56 -16.5 104t-54.5 83.5t-99 55.5t-150 20h-170v-492z" />
<glyph unicode="C" horiz-adv-x="1621" d="M473 670q0 -130 39.5 -230t104.5 -167.5t150 -102t177 -34.5q71 0 131.5 24t113 65.5t99 95.5t88.5 114l137 -100q-44 -72 -106.5 -138t-140.5 -116.5t-170 -80.5t-195 -30q-173 0 -318 50.5t-251 142t-165 220.5t-59 287q0 153 56.5 281.5t158.5 222t244.5 145.5 t315.5 52q115 0 211.5 -27t175 -75t140 -114.5t108.5 -145.5l-139 -97q-42 60 -91.5 113.5t-106 93t-118.5 63t-130 23.5q-92 0 -175.5 -34.5t-146.5 -102.5t-100.5 -168t-37.5 -230z" />
<glyph unicode="D" horiz-adv-x="1612" d="M164 1339h486q188 0 345 -44t270 -128t176 -206.5t63 -279.5q0 -141 -53 -265t-155.5 -216.5t-252 -146t-341.5 -53.5h-538v1339zM493 137h174q97 0 182.5 35.5t149.5 104.5t101 170t37 232q0 112 -35 208t-97.5 166.5t-148.5 110t-189 39.5h-174v-1066z" />
<glyph unicode="E" horiz-adv-x="1272" d="M1164 1339v-114h-671v-442h557v-115h-557v-531h671v-137h-1000v1339h1000z" />
<glyph unicode="F" horiz-adv-x="1233" d="M1125 1339v-114h-632v-442h557v-115h-557v-668h-329v1339h961z" />
<glyph unicode="G" horiz-adv-x="1686" d="M965 653h557v-516q-65 -34 -129 -63t-137 -50t-159.5 -33t-194.5 -12q-173 0 -318.5 48.5t-251 137t-165 212.5t-59.5 276q0 160 59 292.5t164.5 227t251 146.5t318.5 52q102 0 196.5 -27.5t174.5 -72.5t144 -103.5t106 -121.5l-136 -124q-42 60 -88 111.5t-98.5 90 t-112 60t-128.5 21.5q-104 0 -193.5 -37.5t-154.5 -108t-102 -173.5t-37 -233t39.5 -230t107.5 -168t159.5 -103t195.5 -35q63 0 118 16t101 49v357h-228v114z" />
<glyph unicode="H" horiz-adv-x="1521" d="M493 637v-637h-329v1339h329v-587h538v587h325v-1339h-325v637h-538z" />
<glyph unicode="I" horiz-adv-x="685" d="M179 1339h328v-1339h-328v1339z" />
<glyph unicode="J" horiz-adv-x="1068" d="M574 1339h329v-985q0 -81 -30 -150t-90 -119t-150 -78t-211 -28q-68 0 -125 12t-106.5 31.5t-93 44t-82.5 50.5l92 117q21 -20 50.5 -41t65.5 -38t77.5 -27.5t86.5 -10.5q87 0 137 45t50 123v1054z" />
<glyph unicode="K" horiz-adv-x="1453" d="M164 1339h330v-503l594 503h254l-669 -566l849 -773h-398l-630 573v-573h-330v1339z" />
<glyph unicode="L" horiz-adv-x="1223" d="M164 1339h329v-1202h683v-137h-1012v1339z" />
<glyph unicode="M" horiz-adv-x="1881" d="M164 1339h320l463 -915l456 915h313v-1339h-328v872l-437 -872h-127l-452 883v-883h-208v1339z" />
<glyph unicode="N" horiz-adv-x="1508" d="M164 1339h210l763 -852v852h206v-1360h-142l-829 940v-919h-208v1339z" />
<glyph unicode="O" horiz-adv-x="1718" d="M859 -30q-162 0 -301.5 52.5t-242.5 146.5t-162 224.5t-59 285.5q0 152 59 279t162 218t242.5 141.5t301.5 50.5q108 0 206.5 -23t183.5 -66t154.5 -104t118.5 -137.5t75.5 -166.5t26.5 -190q0 -106 -26.5 -200.5t-75.5 -173.5t-118.5 -141.5t-154.5 -106t-183.5 -66.5 t-206.5 -23zM859 84q98 0 173 44.5t125.5 124t76.5 188.5t26 238q0 126 -26 232t-76.5 182t-125.5 118.5t-173 42.5q-99 0 -174 -42.5t-125.5 -118.5t-76 -182t-25.5 -232q0 -129 25.5 -238t76 -188.5t125.5 -124t174 -44.5z" />
<glyph unicode="P" horiz-adv-x="1277" d="M164 1339h467q113 0 211 -24t170.5 -71t114 -117.5t41.5 -164.5q0 -95 -41 -165.5t-108.5 -117.5t-154 -70.5t-176.5 -23.5h-194v-585h-330v1339zM494 706h108q55 0 96.5 20.5t69.5 55t41.5 80t13.5 95.5q0 60 -18 107t-49 79.5t-73.5 49t-90.5 16.5h-98v-503z" />
<glyph unicode="Q" horiz-adv-x="1703" d="M1602 -403q-109 0 -215 18t-204.5 49t-187 72t-163 86.5t-133 93t-95.5 91.5q-113 33 -206.5 96.5t-161 150.5t-105 195t-37.5 230q0 155 57.5 282t159 217.5t240 140t300.5 49.5q161 0 299.5 -52t240.5 -144t160 -218.5t58 -274.5q0 -128 -38 -238t-107.5 -197.5 t-167 -150t-216.5 -93.5q26 -59 77 -116t119.5 -102t152 -73t173.5 -28v-84zM450 679q0 -128 25.5 -236.5t75.5 -188t124 -124.5t171 -46q97 10 172.5 56t127.5 123t79 182t27 234q0 126 -26.5 232t-77.5 182t-125.5 118.5t-171.5 42.5q-98 0 -173 -42.5t-125.5 -118.5 t-76.5 -182t-26 -232z" />
<glyph unicode="R" horiz-adv-x="1340" d="M164 1339h503q130 0 227.5 -27.5t162.5 -76.5t97.5 -115.5t32.5 -145.5q0 -57 -22 -108t-62.5 -94t-96.5 -76.5t-125 -54.5l476 -641h-356l-450 606h-58v-606h-329v1339zM493 722h71q60 0 111.5 17t89 48.5t59 77t21.5 102.5q0 52 -16.5 96.5t-45.5 77t-69 50.5t-88 18 h-133v-487z" />
<glyph unicode="S" horiz-adv-x="1258" d="M624 -21q-120 0 -210.5 28t-153.5 78t-100.5 119t-51.5 150h228q12 -50 34.5 -93t57.5 -75t82.5 -50.5t110.5 -18.5q42 0 83 9t73.5 29t52.5 52t20 79q0 60 -30.5 106t-81 84t-114.5 71t-131.5 66t-131.5 69.5t-114.5 81.5t-81 101t-30.5 130q0 80 35 148t101 118 t162 78.5t218 28.5q101 0 183 -28t144.5 -77t105.5 -114.5t66 -141.5h-207q-18 48 -41.5 91t-58.5 76t-84 52t-117 19q-64 0 -108 -16.5t-71 -42.5t-39 -58t-12 -63q0 -54 31.5 -97.5t83.5 -81t118 -71.5t135.5 -68.5t135.5 -72.5t118 -83.5t83.5 -100.5t31.5 -125 q0 -81 -34 -151.5t-100.5 -122.5t-164.5 -82t-226 -30z" />
<glyph unicode="T" horiz-adv-x="1396" d="M1325 1339v-114h-463v-1225h-328v1225h-464v114h1255z" />
<glyph unicode="U" horiz-adv-x="1552" d="M164 1339h329v-861q0 -78 24 -146t69 -119t108.5 -80.5t143.5 -29.5q79 0 142.5 29.5t108 80.5t68.5 119t24 146v861h206v-861q0 -104 -35 -196t-110 -161.5t-192.5 -110t-282.5 -40.5q-147 0 -260 40.5t-189 110.5t-115 162.5t-39 197.5v858z" />
<glyph unicode="V" horiz-adv-x="1403" d="M339 1339l443 -925l410 925h211l-602 -1360h-154l-647 1360h339z" />
<glyph unicode="W" horiz-adv-x="1905" d="M330 1339l340 -865l341 880l344 -876l331 861h219l-526 -1360h-149l-274 700l-270 -700h-149l-537 1360h330z" />
<glyph unicode="X" horiz-adv-x="1426" d="M230 0h-230l569 661l-513 678h363l340 -453l391 453h231l-512 -597l557 -742h-362l-390 517z" />
<glyph unicode="Y" horiz-adv-x="1419" d="M344 1339l441 -603l413 603h221l-521 -760v-579h-329v559l-569 780h344z" />
<glyph unicode="Z" horiz-adv-x="1384" d="M1381 1339l-929 -1202h879v-137h-1309v62l891 1152h-827v125h1295z" />
<glyph unicode="[" horiz-adv-x="681" d="M164 1344h517v-135h-269v-1435h269v-135h-517v1705z" />
<glyph unicode="\" horiz-adv-x="597" d="M420 -30l-440 1374h189l438 -1374h-187z" />
<glyph unicode="]" horiz-adv-x="680" d="M0 -361v135h267v1435h-267v135h515v-1705h-515z" />
<glyph unicode="^" horiz-adv-x="1013" d="M0 612l441 732h131l440 -732h-221l-287 483l-289 -483h-215z" />
<glyph unicode="_" horiz-adv-x="1112" d="M1118 -135v-136h-1124v136h1124z" />
<glyph unicode="`" horiz-adv-x="725" d="M449 1344l111 -380h-139l-322 380h350z" />
<glyph unicode="a" horiz-adv-x="1075" d="M618 522q-45 -19 -90 -44t-81.5 -54.5t-59.5 -63.5t-23 -70q0 -29 7.5 -54.5t20.5 -45t30 -30.5t35 -11q37 0 75.5 22.5t85.5 57.5v293zM925 0h-307v81q-25 -21 -49.5 -39.5t-54.5 -32t-68 -21t-89 -7.5q-70 0 -125.5 20t-94.5 55t-60 83t-21 104q0 58 22 105t60 84.5 t89.5 67t110 54t121.5 45.5t125 40l34 8v100q0 48 -9.5 82t-27.5 55t-43 30.5t-56 9.5q-36 0 -61 -9.5t-40 -25.5t-21.5 -38t-6.5 -46q0 -29 -6 -55.5t-21.5 -47t-42.5 -32.5t-69 -12q-32 0 -58.5 10t-45.5 27.5t-29.5 41t-10.5 51.5q0 52 35.5 97t96 77.5t140 51 t167.5 18.5q109 0 187.5 -19.5t129.5 -55.5t75 -86.5t24 -113.5v-757z" />
<glyph unicode="b" horiz-adv-x="1196" d="M117 1415l308 84v-558q59 39 129 63.5t135 24.5q95 0 175 -36t138 -98t90.5 -144t32.5 -174q0 -81 -21 -156.5t-58.5 -141.5t-91 -121t-118 -94.5t-139.5 -61t-156 -21.5q-119 0 -228 32.5t-196 102.5v1299zM425 183q16 -14 32.5 -26.5t35 -22.5t40 -16t47.5 -6 q51 0 93 31t72 86t46.5 129t16.5 160q0 64 -16.5 121t-45.5 99.5t-68 67.5t-84 25q-21 0 -44 -6.5t-45 -18.5t-43 -28t-37 -35v-560z" />
<glyph unicode="c" horiz-adv-x="1136" d="M591 906q-49 0 -88.5 -24.5t-67.5 -66t-43.5 -96.5t-15.5 -116q0 -85 19 -162t54 -135.5t84.5 -93.5t110.5 -35q51 0 92 20.5t74 55.5t60 82t50 100l146 -38q-26 -99 -71 -176.5t-107.5 -130.5t-142 -81t-172.5 -28q-104 0 -196 40t-160 108.5t-107.5 160t-39.5 193.5 q0 112 42 211t115 173.5t170.5 118t207.5 43.5q93 0 168.5 -19t128.5 -52.5t81.5 -79.5t28.5 -100q0 -25 -15 -47.5t-39.5 -40t-55.5 -27.5t-64 -10q-36 0 -63.5 10.5t-46 27t-28 38t-9.5 44.5t-1.5 46.5t-11 43t-30 31.5t-57.5 12z" />
<glyph unicode="d" horiz-adv-x="1202" d="M780 59q-55 -38 -122 -60t-131 -22q-63 0 -121.5 19.5t-109.5 54.5t-92.5 83t-71 105.5t-46 122t-16.5 132.5q0 67 20 133t56 125.5t87 110t112.5 87.5t132.5 58t148 21q44 0 83.5 -6.5t70.5 -19.5v412l305 84v-1499h-305v59zM780 687q0 49 -15.5 89.5t-40.5 69 t-56.5 44.5t-63.5 16q-42 0 -79 -27t-65.5 -74.5t-45 -113t-16.5 -143.5q0 -84 19 -160t51.5 -133.5t76 -92t92.5 -34.5q17 0 36.5 5.5t39 15t37 23t30.5 29.5v486z" />
<glyph unicode="e" horiz-adv-x="1175" d="M589 -23q-108 0 -202.5 40t-165 108t-111 157.5t-40.5 189.5q0 120 37.5 222t106.5 176.5t165.5 116.5t215.5 42q106 0 193.5 -33.5t150.5 -92t97.5 -137t34.5 -168.5h-700q3 -84 24.5 -160t57 -134t83.5 -92.5t106 -34.5q51 0 99.5 17.5t90 47.5t72 70.5t44.5 86.5 l156 -24q-23 -82 -75 -154.5t-122 -126.5t-152 -85.5t-166 -31.5zM719 702q-4 45 -19 82t-39 63t-56 40.5t-68 14.5q-29 0 -56 -14t-49.5 -40.5t-38 -63.5t-20.5 -82h346z" />
<glyph unicode="f" horiz-adv-x="825" d="M536 1009h252v-124h-252v-885h-306v885h-198v124h198v115q0 78 31 149t87 124.5t133 85.5t169 32q77 0 133 -15t92 -39.5t53.5 -56.5t17.5 -65q0 -26 -10 -48.5t-27.5 -39t-41.5 -26.5t-52 -10q-38 0 -58 14.5t-30 37t-14.5 48t-12 48t-22.5 37t-46 14.5q-96 0 -96 -166 v-239z" />
<glyph unicode="g" horiz-adv-x="1324" d="M1233 942v-106h-185q24 -38 39.5 -81t15.5 -94q0 -84 -38 -150t-107 -111t-164.5 -69t-210.5 -24q-33 0 -69 4.5t-65 9.5q-20 -15 -31.5 -37t-11.5 -47q0 -8 4.5 -14.5t20 -12.5t46 -11t82.5 -9.5t129.5 -9t186.5 -8.5q101 -4 169.5 -21t110.5 -46t60 -68t18 -87 q0 -84 -45 -152.5t-130 -117t-206.5 -74.5t-275.5 -26q-275 0 -413.5 56t-138.5 148q0 34 19.5 67t51.5 65t72 63.5t81 61.5q-58 20 -93.5 49.5t-35.5 67.5q0 26 16 54.5t44 55.5t64.5 51.5t78.5 43.5q-50 22 -89.5 49.5t-67 62t-42.5 78t-15 97.5q0 86 38 153t105 112.5 t157.5 69.5t195.5 24q50 0 98.5 -5.5t90.5 -14.5t75.5 -21t53.5 -26h311zM838 -12q-68 0 -136.5 2.5t-130 6t-111.5 7.5t-81 8q-32 -26 -50 -64t-18 -75q0 -28 21.5 -54t65 -45.5t107.5 -31.5t150 -12q93 0 166.5 13.5t124.5 35.5t78 49t27 54q0 28 -15 48t-43 33t-67 19 t-88 6zM618 387q34 0 65.5 19t56 50.5t39 73t14.5 85.5q0 65 -17 122.5t-45.5 100t-67.5 67.5t-82 25q-41 0 -70.5 -19.5t-48.5 -53t-28 -78t-9 -94.5q0 -60 14 -114t39 -95t60.5 -65t79.5 -24z" />
<glyph unicode="h" horiz-adv-x="1160" d="M740 691q0 78 -25.5 119t-65.5 41q-18 0 -45.5 -8t-58 -23t-61.5 -35t-57 -44v-741h-310v1415l310 84v-569q35 25 75 44t82 32t84.5 19t83.5 6q61 0 115 -24t94 -66t63 -98.5t23 -120.5v-722h-307v691z" />
<glyph unicode="i" horiz-adv-x="584" d="M140 954l306 85v-1039h-306v954zM127 1331q0 31 13 58t35 47.5t52 32t64 11.5t64.5 -11.5t53 -32t35.5 -47.5t13 -58t-13 -58t-35.5 -47t-53 -31.5t-64.5 -11.5t-64 11.5t-52 31.5t-35 47t-13 58z" />
<glyph unicode="j" horiz-adv-x="552" d="M425 0q0 -134 -30.5 -216.5t-86 -128t-133.5 -61t-173 -15.5q-64 0 -113.5 11t-83.5 29.5t-51.5 43.5t-17.5 52q0 48 37.5 80t102.5 32q24 0 43.5 -7.5t34.5 -19t26.5 -25.5t20.5 -26q21 -29 36 -38t27 -9q13 0 23 6.5t17 23.5t10 45.5t3 72.5v1104l308 85v-1039z M104 1331q0 31 13 58t35.5 47.5t52.5 32t64 11.5t64 -11.5t52.5 -32t35.5 -47.5t13 -58t-13 -58t-35.5 -47t-52.5 -31.5t-64 -11.5t-64 11.5t-52.5 31.5t-35.5 47t-13 58z" />
<glyph unicode="k" horiz-adv-x="1109" d="M425 665l399 362h222l-445 -403l536 -624h-362l-350 406v-406h-308v1415l308 84v-834z" />
<glyph unicode="l" horiz-adv-x="557" d="M431 0h-304v1415l304 84v-1499z" />
<glyph unicode="m" horiz-adv-x="1788" d="M1361 685q0 34 -8 64t-22.5 52.5t-34.5 36t-43 13.5q-26 0 -55 -9t-57 -24t-53 -35t-43 -42v-741h-304v685q0 34 -9 64t-24 52.5t-34.5 36t-40.5 13.5q-25 0 -53 -9t-56 -24t-54 -35t-47 -42v-741h-306v1009h306v-87q72 49 149 78t149 29q39 0 79.5 -8.5t77.5 -25 t68.5 -40t53.5 -53.5q34 28 76 51.5t88 40.5t93.5 26t94.5 9q64 0 122 -25t101.5 -68t69 -101.5t25.5 -124.5v-710h-309v685z" />
<glyph unicode="n" horiz-adv-x="1163" d="M740 691q0 39 -8.5 68.5t-22.5 50t-32.5 31t-38.5 10.5t-45.5 -8t-53.5 -22.5t-57.5 -35.5t-56.5 -46v-739h-308v1009h308v-79q70 51 151 75t162 24q62 0 117.5 -24t97.5 -65.5t67 -97.5t25 -120v-722h-305v691z" />
<glyph unicode="o" horiz-adv-x="1258" d="M628 -19q-121 0 -223 39.5t-176.5 109t-116.5 163t-42 201.5q0 117 41.5 215t116 169.5t176.5 111t223 39.5q120 0 222.5 -39t177.5 -107.5t117.5 -160.5t42.5 -198q0 -112 -42 -210.5t-117 -172.5t-177.5 -117t-222.5 -43zM664 104q42 0 77 27.5t60.5 73t40 106 t14.5 126.5q0 97 -14 182.5t-46.5 149.5t-84.5 101.5t-127 37.5q-36 0 -69.5 -26.5t-59 -71.5t-41 -104.5t-15.5 -124.5q0 -98 18 -184.5t52 -151.5t83.5 -103t111.5 -38z" />
<glyph unicode="p" horiz-adv-x="1204" d="M117 1009h308v-79q52 43 120.5 71t159.5 28q97 0 176 -38t135 -102.5t87 -151t31 -182.5q0 -124 -36.5 -229t-104 -181.5t-163.5 -120t-215 -43.5q-60 0 -104.5 5t-85.5 22v-405h-308v1406zM425 281q0 -37 13.5 -69t38.5 -56t60 -38t78 -14q39 0 74 26.5t61 73t41.5 111 t15.5 141.5q0 97 -14 171t-38.5 124t-58.5 75t-74 25q-29 0 -56 -10t-52 -27t-47.5 -40t-41.5 -48v-445z" />
<glyph unicode="q" horiz-adv-x="1204" d="M780 59q-50 -35 -114.5 -56.5t-158.5 -21.5q-90 0 -170 38.5t-139 103.5t-93.5 152t-34.5 185q0 117 45 220.5t123 181t182.5 122.5t222.5 45q61 0 118.5 -13.5t94.5 -36.5l107 30h124v-1406h-307v456zM602 177q28 0 55 8t50.5 20.5t42 28t30.5 30.5v494q0 35 -11 58.5 t-26 39.5q-24 22 -59.5 37t-64.5 15q-48 0 -90.5 -28.5t-74 -76.5t-49.5 -111.5t-18 -133.5q0 -77 17.5 -146.5t46.5 -121.5t68 -82.5t83 -30.5z" />
<glyph unicode="r" horiz-adv-x="863" d="M423 0h-306v1009h306v-76q51 52 112 84t130 32q41 0 77 -11t63 -29.5t42.5 -43t15.5 -52.5q0 -27 -10.5 -49.5t-28.5 -38.5t-42.5 -25t-51.5 -9q-36 0 -59.5 11.5t-42.5 25.5t-38.5 25.5t-49.5 11.5q-15 0 -30.5 -11.5t-30.5 -31t-29.5 -44.5t-26.5 -52v-726z" />
<glyph unicode="s" horiz-adv-x="947" d="M244 282q28 -81 77.5 -128t124.5 -47q32 0 58.5 8t45 22.5t29 33.5t10.5 40q0 36 -13.5 64t-37 51t-56 42t-70.5 36q-60 27 -119 58t-106 70.5t-76.5 91t-29.5 119.5q0 64 26.5 116.5t75 90t115.5 58t148 20.5q75 0 132 -13.5t100.5 -39t76.5 -62.5t60 -83l-177 -62 q-14 49 -34 76t-41.5 40t-42.5 15.5t-37 2.5q-28 0 -53.5 -6t-45 -18t-31.5 -29.5t-12 -40.5q0 -29 15 -54t41.5 -47.5t63 -42t78.5 -37.5q64 -27 125 -59.5t108 -73t75.5 -90.5t28.5 -112q0 -66 -22 -123t-70.5 -100t-126 -67.5t-188.5 -24.5q-94 0 -159.5 21.5t-111.5 56 t-76 76.5t-52 84z" />
<glyph unicode="t" horiz-adv-x="811" d="M46 885v102q55 0 103 27t87 73.5t67 109t42 133.5h169v-321h249v-124h-249v-651q0 -30 16 -52.5t42 -22.5q16 0 35 10.5t36.5 25t30.5 28.5t19 22l105 -82q-26 -39 -56.5 -73t-70 -59t-91 -39.5t-118.5 -14.5q-63 0 -111 18t-79.5 51t-47.5 79t-16 101v659h-162z" />
<glyph unicode="u" horiz-adv-x="1158" d="M423 1009v-711q0 -30 11.5 -55.5t32 -45t47.5 -30.5t57 -11q17 0 38.5 9.5t43.5 26.5t43 39.5t38 49.5v728h307v-1009h-307v94q-60 -52 -128.5 -82.5t-132.5 -30.5q-75 0 -140 25t-113 68t-75.5 100.5t-27.5 123.5v711h306z" />
<glyph unicode="v" horiz-adv-x="1127" d="M321 1027l296 -632l300 632h210l-498 -1050h-140l-489 1050h321z" />
<glyph unicode="w" horiz-adv-x="1636" d="M321 1027l266 -610l263 617h61l267 -608l258 601h200l-452 -1050h-141l-220 507l-217 -507h-150l-456 1050h321z" />
<glyph unicode="x" horiz-adv-x="1104" d="M200 0h-217l420 509l-387 518h343l224 -299l247 299h217l-361 -439l438 -588h-344l-275 370z" />
<glyph unicode="y" horiz-adv-x="1142" d="M0 1027h324l320 -622l281 622h217l-508 -1122q-27 -60 -69.5 -108t-93 -82.5t-105.5 -53t-108 -18.5q-40 0 -76 10t-63 27.5t-43 41.5t-16 52q0 19 6.5 39t23 36t44 26.5t68.5 10.5q27 0 44 -9t30.5 -20.5t28 -20.5t36.5 -9q15 0 31.5 17t32 42t29 54t23.5 52l36 80z" />
<glyph unicode="z" horiz-adv-x="1078" d="M-15 79l657 825h-572v123h978v-65l-664 -839h644v-123h-1043v79z" />
<glyph unicode="{" horiz-adv-x="775" d="M775 1265q-50 -5 -93 -27t-75 -56.5t-50.5 -78.5t-18.5 -92q0 -35 4.5 -64t10 -56t10 -53t4.5 -55q0 -42 -17 -85t-47 -82.5t-71.5 -74t-90.5 -58.5q48 -21 89.5 -55t71.5 -75t47.5 -87t17.5 -92q0 -27 -4.5 -54.5t-10 -55.5t-10 -57.5t-4.5 -59.5q0 -52 18.5 -97.5 t50.5 -81t75 -57.5t93 -27v-79q-98 0 -184 31.5t-150 86t-101 127t-37 154.5q0 28 4.5 55.5t10 55.5t10 57t4.5 61q0 41 -17 77.5t-46 63.5t-68 42.5t-84 15.5v95q45 0 84 15.5t68 42t46 62.5t17 77q0 38 -4.5 67t-10 55t-10 51.5t-4.5 57.5q0 80 37 150.5t101 123.5t150 84 t184 31v-79z" />
<glyph unicode="|" horiz-adv-x="424" d="M306 1314v-1745h-189v1745h189z" />
<glyph unicode="}" horiz-adv-x="774" d="M-1 1344q97 0 182.5 -31t149.5 -84t101 -123.5t37 -150.5q0 -29 -4.5 -56.5t-10 -55.5t-10 -57.5t-4.5 -61.5q0 -41 17 -77t46.5 -62.5t69 -42t83.5 -15.5v-95q-44 0 -83.5 -15.5t-69 -42.5t-46.5 -63.5t-17 -77.5q0 -29 4.5 -57.5t10 -57t10 -57t4.5 -57.5 q0 -82 -37 -154.5t-101 -127t-149.5 -86t-182.5 -31.5v79q49 5 92.5 27t75.5 57.5t51 81t19 97.5q0 28 -4.5 56.5t-10.5 56.5t-10.5 56.5t-4.5 57.5q0 46 17.5 92t47.5 87t71 75t88 55q-48 24 -89 58.5t-71 74t-47 82.5t-17 85q0 27 4.5 54.5t10.5 55.5t10.5 57.5t4.5 60.5 q0 48 -19 92t-51 78.5t-75.5 56.5t-92.5 27v79z" />
<glyph unicode="~" horiz-adv-x="1137" d="M1106 834q0 -86 -21.5 -151.5t-62 -109.5t-97.5 -66t-128 -22q-52 0 -96 12.5t-84 32t-77 41.5t-73 41.5t-73.5 32t-78.5 12.5q-25 0 -49 -14t-43.5 -38t-33 -55t-19.5 -65h-139q0 169 86.5 259t243.5 90q41 0 82.5 -12.5t82 -31.5t81 -41t80 -41t77 -31.5t73.5 -12.5 q26 0 46 14t35.5 37.5t28.5 54t25 64.5h134z" />
<glyph unicode="&#xa9;" horiz-adv-x="1715" d="M856 1529q107 0 207 -28.5t188 -80.5t160 -124t124 -158.5t80.5 -185.5t28.5 -204q0 -106 -29 -203.5t-81.5 -183t-125 -155.5t-159.5 -119.5t-185.5 -77t-202.5 -27.5q-108 0 -209 28t-188.5 79t-160 122.5t-124.5 158t-80.5 186t-28.5 206.5t29.5 206t82 184 t125.5 154.5t160.5 119t186 76.5t202.5 27zM853 1380q-133 -9 -244 -61t-191.5 -136t-125 -194t-44.5 -236q0 -83 22 -161.5t61.5 -147.5t95 -126t123.5 -98.5t146.5 -64.5t162.5 -23q88 0 167.5 24t147 67t122 102t93 129t59 148t20.5 159q0 124 -50 235.5t-134.5 196.5 t-196 135.5t-234.5 51.5zM1251 601q-17 -72 -53 -127t-87 -92.5t-114.5 -56.5t-134.5 -19q-103 0 -183 36t-134.5 97.5t-83 143t-28.5 172.5q0 101 30.5 182.5t87 138.5t137 88t179.5 31q287 0 373 -258l-167 -38q-33 78 -84 117.5t-125 39.5q-68 0 -113.5 -27.5t-74 -71.5 t-40.5 -100t-12 -113t12 -109.5t38.5 -93.5t70 -65.5t106.5 -24.5q93 0 148.5 50t80.5 151z" />
<glyph unicode="&#xad;" horiz-adv-x="657" d="M610 560v-159h-563v159h563z" />
<glyph unicode="&#xbc;" horiz-adv-x="1496" d="M1110 0v166h-328v100l373 440h120v-424h104v-116h-104v-166h-165zM1108 491q-23 -27 -44.5 -52t-42.5 -49.5t-43 -51t-47 -56.5h179zM126 1235l101 82h64v-707h-165v625zM256 -45h-139l918 1362h139z" />
<glyph unicode="&#xbd;" horiz-adv-x="1468" d="M257 -45h-140l918 1362h139zM807 66q57 43 121 93t118 102.5t89 105.5t35 101t-34 77.5t-84 29.5q-93 0 -131 -106h-86q7 49 30.5 92.5t57 75.5t75.5 50.5t87 18.5q117 0 182 -55t65 -151q0 -52 -28 -103t-71 -98t-93 -89.5t-95 -78.5h306v-131h-544v66zM138 1235l101 82 h65v-707h-166v625z" />
<glyph unicode="&#xbe;" horiz-adv-x="1680" d="M241 1000q32 0 62.5 7.5t54 22.5t38 37t14.5 51q0 39 -23.5 57t-65.5 18q-36 0 -70.5 -24.5t-60.5 -62.5l-71 36q35 81 98.5 128t149.5 47q36 0 71 -9.5t63 -29t45.5 -50t17.5 -71.5q0 -38 -18 -73.5t-46 -62.5q51 -26 77.5 -67.5t26.5 -104.5q0 -68 -28.5 -117t-75 -80 t-105 -45.5t-117.5 -14.5q-15 0 -42 4t-53.5 13.5t-46 26.5t-19.5 43q0 16 6.5 27.5t17 18t24 9.5t26.5 3q20 0 39 -7t39 -16l4 -1q19 -9 39.5 -16t42.5 -7q21 0 39.5 8t33 22t23 32.5t8.5 38.5q0 37 -17 62t-46.5 40.5t-69 22.5t-85.5 7v77zM439 -45h-138l917 1362h138z M1292 0v166h-326v100l373 440h119v-424h104v-116h-104v-166h-166zM1291 492l-176 -210h177z" />
<glyph unicode="&#x2000;" horiz-adv-x="786" />
<glyph unicode="&#x2001;" horiz-adv-x="1572" />
<glyph unicode="&#x2002;" horiz-adv-x="786" />
<glyph unicode="&#x2003;" horiz-adv-x="1572" />
<glyph unicode="&#x2004;" horiz-adv-x="524" />
<glyph unicode="&#x2005;" horiz-adv-x="393" />
<glyph unicode="&#x2006;" horiz-adv-x="262" />
<glyph unicode="&#x2007;" horiz-adv-x="262" />
<glyph unicode="&#x2008;" horiz-adv-x="196" />
<glyph unicode="&#x2009;" horiz-adv-x="314" />
<glyph unicode="&#x200a;" horiz-adv-x="87" />
<glyph unicode="&#x2010;" horiz-adv-x="657" d="M610 560v-159h-563v159h563z" />
<glyph unicode="&#x2011;" horiz-adv-x="657" d="M610 560v-159h-563v159h563z" />
<glyph unicode="&#x2012;" horiz-adv-x="657" d="M610 560v-159h-563v159h563z" />
<glyph unicode="&#x2013;" horiz-adv-x="1103" d="M985 480h-868v116h868v-116z" />
<glyph unicode="&#x2014;" horiz-adv-x="1693" d="M1575 480h-1458v116h1458v-116z" />
<glyph unicode="&#x2018;" horiz-adv-x="489" d="M418 1256q-43 -12 -80.5 -32.5t-65.5 -46.5t-44.5 -56.5t-16.5 -61.5q0 -11 1 -19.5t4 -8.5q6 0 14.5 4.5t19.5 10.5t24 10.5t28 4.5q24 0 45 -10t36.5 -27.5t25 -42t9.5 -53.5t-12 -54.5t-33 -44t-49.5 -29.5t-60.5 -11q-40 0 -75 17.5t-61.5 47.5t-41.5 70.5t-15 87.5 q0 69 28 128.5t76 103.5t111 70.5t133 30.5v-89z" />
<glyph unicode="&#x2019;" horiz-adv-x="489" d="M70 876q43 12 81.5 33t66.5 47t44.5 56.5t16.5 60.5q0 12 -1.5 19.5t-2.5 7.5q-8 0 -16.5 -4.5t-19 -10.5t-23 -10.5t-28.5 -4.5q-24 0 -45.5 10t-37.5 28t-25.5 42.5t-9.5 52.5q0 30 12.5 56t34 45t50 29.5t60.5 10.5q40 0 74.5 -17.5t60.5 -48t41 -71t15 -86.5 q0 -69 -28 -128.5t-75.5 -103.5t-111 -71t-133.5 -31v89z" />
<glyph unicode="&#x201c;" horiz-adv-x="909" d="M838 1256q-43 -12 -81 -32.5t-66 -46.5t-44.5 -56.5t-16.5 -61.5q0 -11 1 -19.5t3 -8.5q9 0 18 4.5t19 10.5t22 10.5t28 4.5q24 0 45 -10t37 -27.5t25.5 -42t9.5 -53.5t-12 -54.5t-33 -44t-49.5 -29.5t-61.5 -11q-39 0 -74 17.5t-60.5 47.5t-40.5 70.5t-15 87.5 q0 69 27.5 128.5t75 103.5t110 70.5t133.5 30.5v-89zM418 1256q-44 -12 -81.5 -32.5t-66 -46.5t-44.5 -56.5t-16 -61.5q0 -11 1 -19.5t3 -8.5q8 0 17 4.5t19 10.5t22.5 10.5t27.5 4.5q24 0 45.5 -10t37.5 -27.5t25.5 -42t9.5 -53.5t-12 -54.5t-33 -44t-50 -29.5t-62 -11 q-39 0 -74 17.5t-61 47.5t-41 70.5t-15 87.5q0 69 28 128.5t75.5 103.5t110.5 70.5t134 30.5v-89z" />
<glyph unicode="&#x201d;" horiz-adv-x="909" d="M70 876q43 12 81.5 33t66.5 47t44.5 56.5t16.5 60.5q0 12 -1 19.5t-4 7.5q-11 0 -20.5 -4.5t-19.5 -10.5t-21 -10.5t-25 -4.5q-23 0 -44.5 10t-38 28t-26 42.5t-9.5 52.5q0 30 12 56t33.5 45t50 29.5t61.5 10.5q39 0 74 -17.5t61 -48t41 -71t15 -86.5q0 -69 -28 -128.5 t-75.5 -103.5t-111 -71t-133.5 -31v89zM492 876q43 12 81 33t66 47t44 56.5t16 60.5q0 12 -1 19.5t-3 7.5q-10 0 -19.5 -4.5t-19.5 -10.5t-21.5 -10.5t-25.5 -4.5q-24 0 -45.5 10t-37 28t-25 42.5t-9.5 52.5q0 30 12 56t33 45t49.5 29.5t61.5 10.5q39 0 74 -17.5t60.5 -48 t40.5 -71t15 -86.5q0 -69 -28 -128.5t-75 -103.5t-110 -71t-133 -31v89z" />
<glyph unicode="&#x2022;" horiz-adv-x="660" d="M70 590q0 52 20.5 97.5t56 79.5t83 54t102.5 20q54 0 101 -20t81.5 -54t54.5 -79.5t20 -97.5t-20 -97t-54.5 -78.5t-81.5 -52.5t-101 -19q-55 0 -102.5 19t-83 52.5t-56 78.5t-20.5 97z" />
<glyph unicode="&#x202f;" horiz-adv-x="314" />
<glyph unicode="&#x205f;" horiz-adv-x="393" />
<glyph unicode="&#x25fc;" horiz-adv-x="1025" d="M0 1025h1025v-1025h-1025v1025z" />
</font>
</defs>
</svg>
